<?xml version="1.0" encoding="utf-8"?>
<!-- Generator: Adobe Illustrator 27.5.0, SVG Export Plug-In . SVG Version: 6.00 Build 0)  -->
<svg version="1.1" xmlns="http://www.w3.org/2000/svg" xmlns:xlink="http://www.w3.org/1999/xlink" x="0px" y="0px"
	 viewBox="0 0 500 500" style="enable-background:new 0 0 500 500;" xml:space="preserve">
<g id="BACKGROUND">
	<rect style="fill:#FFFFFF;" width="500" height="500"/>
</g>
<g id="OBJECTS">
	<g>
		<g>
			<path style="fill:#002A5C;" d="M369.938,142.415c-3.227,0.087-6.463-0.14-9.647-0.675c-0.312-0.053-0.645-0.119-0.866-0.345
				c-0.264-0.271-1.038-0.345-0.986-0.719c0.234-1.694,2.468-3.334,4.074-3.922c1.606-0.588,3.351-0.628,5.052-0.81
				c6.14-0.657,12.052-3.307,16.628-7.453c1.366-1.238,2.853-2.703,4.695-2.626c1.927,0.08,4.101,2.118,3.543,3.963
				c-0.194,0.642-1.221,1.329-1.626,1.863c-5.567,7.347-15.181,11.409-24.33,10.28"/>
		</g>
		<g>
			<path style="fill:#002A5C;" d="M118.951,270.035c-5.342,0.9-10.84,0.862-16.169-0.111c-1.153-0.211-2.508-0.657-2.788-1.795
				c-0.383-1.556,1.518-2.612,3.052-3.076c8.566-2.588,17.133-5.176,25.7-7.764c1.329-0.401,2.726-0.807,4.085-0.521
				c1.358,0.285,2.626,1.518,2.435,2.893c-0.107,0.773-0.632,1.415-1.162,1.988c-4.285,4.631-10.351,7.572-16.641,8.068"/>
		</g>
		<path style="fill:#FFFFFF;stroke:#002A5C;stroke-linecap:round;stroke-linejoin:round;stroke-miterlimit:10;" d="M138.437,248.579
			c-1.88,21.552-5.836,36.757-4.274,55.614c0.881,10.634,4.38,21.862,6.868,32.238c3.704,15.445,3.553,31.799-0.434,47.174
			c-1.488,5.738-3.638,11.559-7.911,15.668c-4.272,4.109-11.153,6.004-16.289,3.045c-2.122-1.223-3.762-3.133-5.175-5.134
			c-9.357-13.249-9.925-30.577-10.151-46.796c-0.101-7.234-0.193-14.552,1.432-21.603c1.269-5.507,2.62-19.977,4.257-25.387
			c4.834-15.984,4.77-23.811,6.541-40.417c0.394-3.696-2.412-11.838-0.032-14.692c3.003-3.601,11.437-0.412,16.05-1.253
			c4.637-0.845,8.52-4.298,11.287-0.483c1.828,2.519-2.912,9.381-3.267,12.473"/>
		<path style="fill:none;stroke:#002A5C;stroke-miterlimit:10;" d="M178.198,218.718c-15.626-2.098-30.044,10.602-35.928,25.229
			c-5.884,14.627-5.471,30.885-6.223,46.633c-0.957,20.047-3.935,39.936-6.91,59.784c-1.16,7.739-2.327,15.51-4.601,22.998
			c-1.586,5.22-3.723,10.385-3.89,15.837c-0.167,5.453-7.627,7.969-2.604,10.099c5.1,2.162,11.383,4.241,17.791-0.434
			c4.475-3.265,11.066-15.501,12.584-20.829c4.262-14.958,9.483-24.92,13.745-39.878c5.073-17.805,10.201-35.749,18.725-52.184
			c1.122-2.164,2.491-4.467,4.784-5.294c1.645-0.594,3.458-0.305,5.205-0.386c9.053-0.422,14.579-10.519,15.373-19.547
			c0.854-9.707-1.693-19.679-7.097-27.788c-6.757-10.137-19.71-16.996-31.209-13.742"/>
		<path style="fill:#FFFFFF;stroke:#002A5C;stroke-linecap:round;stroke-linejoin:round;stroke-miterlimit:10;" d="M311.43,185.37
			c18.514-1.446,38.984,2.132,57.449-3.899c1.331-0.435,2.701-0.974,3.608-2.04c1.31-1.539,1.337-3.758,1.297-5.778
			c-0.215-10.907-0.589-22.387-6.233-31.722c-2.18-3.605-4.897-6.908-6.448-10.825c-6.859-17.334,3.058-17.744,11.37-19.3
			c0.491-0.092,1.003-0.158,1.486-0.032c0.842,0.22,1.425,0.967,1.932,1.674c14.9,20.769,21.289,46.427,34.13,68.528
			c1.465,2.521,3.066,5.192,2.932,8.105c-0.128,2.788-1.848,5.256-3.812,7.238c-7.934,8.004-19.832,10.198-30.906,12.294
			c-26.767,5.065-53.184,11.806-79.579,18.543c-3.012,0.769-6.572,2.09-7.141,5.147c-6.099-0.857-12.44-1.804-17.531-5.271
			c-5.091-3.466-8.487-10.257-6.08-15.927c1.159-2.73,3.44-4.796,5.654-6.769c11.596-10.338,25.193-21.365,40.643-19.743"/>
		<path style="fill:#FFFFFF;stroke:#002A5C;stroke-linecap:round;stroke-linejoin:round;stroke-miterlimit:10;" d="M206.538,184.057
			c-10.967,11.088-23.431,20.694-36.947,28.474c-6.056,3.486-12.583,6.84-16.448,12.661c-2.243,3.378-3.411,7.355-4.201,11.331
			c-5.057,25.44,4.231,51.405,14.782,75.1c14.283,32.076,31.184,62.986,50.481,92.322c1.746,2.654,3.617,5.394,6.399,6.926
			c2.717,1.496,5.947,1.643,9.047,1.755c34.463,1.247,69.538,2.43,102.84-6.531c0.813-7.068-3.259-13.634-6.479-19.979
			c-14.201-27.981-13.534-60.97-11.005-92.246c0.427-5.281,0.891-10.662-0.296-15.826c-0.913-3.973-2.77-7.656-4.61-11.294
			c-3.486-6.892-6.971-13.784-10.457-20.676c-6.726-13.298-14.245-27.423-27.469-34.295c-7.65-3.975-16.449-5.067-24.52-8.099
			c-14.454-5.428-26.724-17.092-42.086-18.64"/>
		<g>
			<defs>
				<path id="SVGID_1_" d="M188.773,191.879c-6.943,4.484-24.768,17.448-36.07,30.885c-2.266,2.694-4.523,5.448-6.06,8.616
					c-2.943,6.068-3.01,13.127-5.22,19.499c-5.521,15.92-26.019,24.619-41.305,17.529c2.4,18.52-0.503,37.271-3.399,55.72
					c-1.924,12.254-3.848,24.508-5.772,36.762c-0.673,4.284-1.347,8.623-0.918,12.938c0.977,9.826,7.441,18.114,13.646,25.796
					c5.111,6.327,11.474,13.253,19.6,12.902c7.675-0.331,13.32-7.037,17.938-13.176c9.771-12.986,19.901-26.851,21.565-43.017
					c0.766-7.439,0.092-16.063,5.59-21.133c8.275,27.165,33.225,46.267,43.826,72.612c1.711,4.251,3.297,9.003,7.191,11.42
					c2.429,1.508,5.384,1.841,8.228,2.137c37.957,3.95,79.203,7.184,111.449-13.226c-4.665-16.145-9.331-32.289-13.996-48.434
					c-4.44-15.364-8.922-31.069-8.172-47.043c0.739-15.735,6.386-32.396-0.401-46.611c-2.734-5.726-7.278-10.422-10.127-16.091
					c-2.85-5.669-3.575-13.292,0.92-17.77c3.199-3.187,8.049-3.855,12.528-4.435c25.168-3.26,50.007-9.052,74.021-17.26
					c8.781-3.001,18.73-7.778,20.372-16.911c0.872-4.853-0.932-9.744-2.704-14.346c-6.446-16.732-12.893-33.464-19.339-50.195
					c-6.59,10.895-21.06,16.289-33.174,12.369c6.785,10.413,9.044,23.668,6.09,35.74c-3.393-3.352-9.061-2.762-13.435-0.859
					c-4.374,1.903-8.353,4.884-13.039,5.774c-3.637,0.691-7.375,0.055-11.053-0.364c-15.014-1.708-30.437,0.304-44.51,5.806
					c-7.036,2.751-13.826,6.383-21.268,7.681c-13.455,2.347-26.846-3.182-39.859-7.328c-13.013-4.146-21.446-3.385-32.926,4.014"/>
			</defs>
			<use xlink:href="#SVGID_1_"  style="overflow:visible;fill:#FFFFFF;"/>
			<clipPath id="SVGID_00000036217393604559980580000007607362166734741633_">
				<use xlink:href="#SVGID_1_"  style="overflow:visible;"/>
			</clipPath>
			<g style="clip-path:url(#SVGID_00000036217393604559980580000007607362166734741633_);">
				<g>
					<path style="fill:#FFC619;" d="M140.387,295.489c-1.474-1.197-0.708-2.608,0.599-2.92c0.865-0.215,2.096-0.2,3.807-0.355
						c1.676-0.033,3.781-0.039,6.353-0.188c3.651-0.302,7.457-0.581,11.436-1.207c3.973-0.602,8.095-1.422,12.319-2.42
						c8.457-1.975,17.277-4.804,26.188-7.717c9.67-3.217,20.778-8.161,31.618-13.878c5.433-2.838,10.788-5.89,15.933-8.922
						c5.181-3.049,9.995-6.003,14.359-9.008c10.337-7.044,20.531-15.395,29.631-24.594c2.268-2.3,4.475-4.683,6.506-7.044
						c2.004-2.419,3.951-4.877,5.693-7.459c3.56-5.111,6.537-10.521,9.007-15.989c1.096-2.419,2.125-4.944,3.083-7.41
						c0.483-1.232,0.879-2.47,1.319-3.655c0.392-1.202,0.772-2.363,1.132-3.466c0.685-2.222,1.227-4.232,1.88-5.834
						c0.269-0.809,0.698-1.5,0.93-2.099c0.272-0.594,0.485-1.076,0.669-1.419c1.436-2.732,1.707-1.732,2.26,1.265
						c0.312,1.5,0.581,3.495,0.595,5.688c-0.024,1.09-0.057,2.238-0.11,3.406c-0.097,1.165-0.195,2.348-0.292,3.516
						c-1.642,10.041-5.68,20.507-11.737,30.063c-3.012,4.773-6.588,9.347-10.473,13.498c-3.844,4.12-7.918,7.993-12.111,11.621
						c-6.404,5.522-13.348,10.878-20.728,15.941c-3.69,2.532-7.498,4.978-11.406,7.329c-3.867,2.322-7.764,4.601-11.713,6.856
						c-7.898,4.492-15.924,8.9-24.057,12.964c-8.125,4.08-16.337,7.86-24.605,11.067c-5.133,2.001-11.434,4.065-17.641,5.534
						c-6.195,1.495-12.337,2.24-16.805,2.215c-1.482-0.045-2.88-0.039-4.221-0.095c-1.346-0.086-2.616-0.112-3.832-0.227
						c-1.218-0.136-2.37-0.244-3.461-0.436c-1.088-0.216-2.12-0.421-3.102-0.616c-0.976-0.212-1.894-0.499-2.758-0.749
						c-0.866-0.24-1.672-0.551-2.424-0.889c-0.755-0.321-1.441-0.712-2.083-1.09C141.507,296.345,140.923,295.921,140.387,295.489z"
						/>
				</g>
			</g>
			<g style="clip-path:url(#SVGID_00000036217393604559980580000007607362166734741633_);">
				<g>
					<path style="fill:#FFC619;" d="M318.095,248.028c-0.686,0.321-1.419-0.136-1.605-0.703c-0.111-0.365-0.17-0.883-0.185-1.568
						c-0.009-0.343-0.009-0.729-0.003-1.16c0.011-0.429,0.039-0.898-0.068-1.484c0.147-2.95,0.734-6.005,1.988-8.915
						c1.183-2.945,2.652-5.928,4.336-8.835c1.823-3.16,3.641-7.051,5.267-11.057c1.648-3.997,3.194-8.073,4.501-11.609
						c1.53-4.191,3.024-8.617,4.584-13c1.578-4.38,3.075-8.761,5.023-12.764c0.41-0.893,0.829-1.808,1.235-2.693
						c0.486-0.863,1.047-1.671,1.419-2.442c0.412-0.759,0.797-1.434,1.139-1.969c0.352-0.533,0.686-0.919,0.933-1.12
						c0.983-0.791,1.239-0.349,1.482,0.77c0.254,1.122,0.28,2.862,0.439,4.558c0.105,1.83-0.242,3.604-0.466,5.463
						c-0.3,1.836-0.553,3.737-1.062,5.586c-0.964,3.714-2.156,7.459-3.468,11.084c-2.029,5.517-4.221,11.474-6.435,17.494
						c-2.249,6.01-4.612,12.053-6.852,17.798c-0.714,1.777-1.559,3.907-2.525,5.867c-0.951,1.966-1.935,3.803-3.051,4.924
						C322.07,245.355,319.981,247.038,318.095,248.028z"/>
				</g>
			</g>
			<g style="clip-path:url(#SVGID_00000036217393604559980580000007607362166734741633_);">
				<g>
					<path style="fill:#FFC619;" d="M63.238,348.503c-1.733-1.223-1.036-2.304,0.469-2.321c0.986-0.011,2.45,0.217,4.501,0.404
						c2.021,0.288,4.655,0.403,7.775,0.847c8.851,1.287,18.759,1.935,29.097,1.181c5.165-0.371,10.429-1.079,15.685-2.173
						c5.261-1.069,10.548-2.593,15.828-4.328c11.463-3.756,24.685-10.149,38.128-16.32c1.701-0.78,3.296-1.553,5.083-2.343
						c1.75-0.798,3.509-1.525,5.261-2.22c3.505-1.395,6.99-2.648,10.4-3.849c6.821-2.388,13.333-4.6,19.137-6.966
						c0.85-0.359,1.703-0.718,2.558-1.079c0.839-0.379,1.681-0.759,2.524-1.14c0.826-0.404,1.653-0.809,2.483-1.215
						c0.848-0.443,1.698-0.887,2.55-1.331c3.418-1.759,6.827-3.601,10.25-5.464c6.806-3.797,13.569-7.838,20.204-12.057
						c13.252-8.473,25.967-17.674,37.719-26.791c5.264-3.958,10.654-8.285,15.155-11.801c2.275-1.732,4.325-3.265,6.014-4.464
						c1.687-1.201,2.954-2.129,3.783-2.518c3.16-1.677,2.428-0.673,0.385,2.177c-2.123,2.761-5.762,7.156-9.454,11.093
						c-2.086,2.062-4.234,4.139-6.461,6.203c-2.206,2.087-4.498,4.15-6.84,6.214c-2.353,2.051-4.791,4.061-7.247,6.097
						c-2.497,1.985-4.983,4.032-7.577,5.975c-5.121,3.974-10.495,7.75-15.921,11.464c-5.485,3.628-11.017,7.212-16.665,10.488
						c-2.129,1.288-4.326,2.511-6.531,3.764c-2.194,1.272-4.455,2.47-6.719,3.702c-2.253,1.253-4.577,2.415-6.906,3.603
						c-2.278,1.19-4.809,2.39-7.278,3.457c-9.949,4.243-20.278,7.264-30.112,11.025c-2.457,0.937-4.88,1.917-7.224,2.989
						c-1.156,0.517-2.384,1.102-3.6,1.677l-3.646,1.725c-4.861,2.308-9.715,4.614-14.544,6.907
						c-9.689,4.595-19.523,9.082-29.708,12.318c-6.304,2.042-14.195,3.831-21.801,4.48c-7.608,0.747-14.914,0.357-20.074-0.448
						c-6.811-1.073-12.243-2.297-16.617-3.734c-0.273-0.088-0.543-0.175-0.81-0.261c-0.259-0.114-0.514-0.227-0.766-0.338
						c-0.501-0.225-0.99-0.445-1.466-0.659c-0.951-0.422-1.838-0.857-2.663-1.313c-0.828-0.446-1.606-0.877-2.333-1.312
						C64.545,349.381,63.868,348.946,63.238,348.503z"/>
				</g>
			</g>
			<g style="clip-path:url(#SVGID_00000036217393604559980580000007607362166734741633_);">
				<g>
					<path style="fill:#FFC619;" d="M60.624,369.157c-1.635-1.612-0.586-2.873,1.036-2.7c2.111,0.258,6.199,1.609,12.699,3.49
						c9.2,2.705,19.66,4.774,30.763,5.239c5.546,0.24,11.24,0.092,16.962-0.511c5.704-0.614,11.377-1.676,16.665-3.564
						c2.876-1.014,5.744-2.364,8.443-4.12c1.35-0.883,2.618-1.831,4.043-3.012c1.424-1.157,2.974-2.456,4.811-3.682
						c1.858-1.252,3.969-2.263,6.004-3.006c2.053-0.759,4.091-1.298,6.062-1.778c1.985-0.466,3.848-0.904,5.745-1.394
						c1.895-0.477,3.796-0.956,5.7-1.435c15.201-3.945,30.204-9.073,42.916-14.142c15.059-5.966,30.41-13.25,45.205-21.387
						c1.872-0.976,3.688-2.051,5.515-3.1c1.827-1.049,3.652-2.096,5.474-3.141c3.626-2.118,7.162-4.353,10.725-6.486
						c3.519-2.209,7.011-4.402,10.467-6.571c3.407-2.253,6.777-4.482,10.099-6.679c1.445-1.011,2.907-2.035,4.366-3.056
						c0.731-0.51,1.461-1.019,2.187-1.525c0.742-0.487,1.48-0.972,2.212-1.453c2.903-1.958,5.636-3.948,8.204-5.632
						c2.578-1.674,4.749-3.337,6.669-4.481c1.86-1.215,3.221-2.2,4.076-2.644c3.331-1.822,2.65-0.617,0.202,2.197
						c-0.622,0.695-1.342,1.5-2.133,2.385c-0.784,0.896-1.601,1.921-2.535,2.911c-1.835,2.017-3.956,4.104-5.967,6.216
						c-4.556,4.391-9.631,8.547-14.935,12.666c-2.677,2.026-5.376,4.097-8.148,6.121c-2.816,1.962-5.657,3.942-8.516,5.934
						c-11.661,7.637-24.12,14.673-36.701,20.841c-9.555,4.782-19.76,9.191-30.268,13.47c-10.535,4.227-21.496,8.021-32.613,11.529
						c-5.603,1.604-11.183,3.354-16.854,4.748c-2.809,0.719-5.685,1.512-8.429,2.167c-2.716,0.677-5.224,1.404-7.354,2.428
						c-1.074,0.516-1.995,1.069-2.979,1.791c-0.979,0.714-1.986,1.565-3.053,2.479c-2.1,1.849-4.726,3.944-7.368,5.538
						c-5.334,3.28-11.105,5.43-16.823,6.846c-3.561,0.882-7.496,1.595-11.553,1.995c-4.056,0.468-8.269,0.63-12.375,0.555
						c-4.109-0.037-8.104-0.451-11.749-0.95c-3.638-0.566-6.93-1.246-9.627-2.043C73.66,378.125,65.383,373.835,60.624,369.157z"/>
				</g>
			</g>
			<g style="clip-path:url(#SVGID_00000036217393604559980580000007607362166734741633_);">
				<g>
					<path style="fill:#FFC619;" d="M172.693,396.555c-1.408-0.399-1.552-1.337-0.943-2.253c0.206-0.279,0.48-0.612,0.824-1
						c0.365-0.322,0.81-0.671,1.336-1.051c0.527-0.375,1.129-0.802,1.826-1.224c0.702-0.406,1.49-0.835,2.367-1.289
						c4.969-2.598,10.698-4.921,16.753-7.313c3.035-1.176,6.177-2.294,9.355-3.446c3.181-1.141,6.445-2.19,9.696-3.29
						c3.539-1.175,7.384-2.501,11.334-4.047c1.976-0.771,3.993-1.558,6.033-2.354c2.021-0.843,4.064-1.695,6.112-2.549
						c8.184-3.432,16.293-7.215,23.297-10.5c8.252-3.965,16.844-8.224,25.312-12.631c2.123-1.091,4.243-2.181,6.355-3.267
						c2.127-1.059,4.245-2.114,6.347-3.161c4.196-2.112,8.34-4.183,12.389-6.168c3.561-1.797,7.341-3.606,10.453-5.114
						c3.122-1.49,5.642-2.565,6.785-2.709c2.262-0.288,1.974,0.661,0.503,2.241c-1.472,1.576-4.13,3.773-6.65,5.875
						c-2.9,2.03-5.945,4.083-9.087,6.153c-3.163,2.033-6.451,4.036-9.792,6.042c-1.69,0.97-3.39,1.946-5.095,2.925
						c-1.709,0.974-3.425,1.95-5.188,2.84c-3.516,1.798-7.026,3.62-10.556,5.318c-10.728,5.258-22.401,10.745-34.279,16.12
						c-11.88,5.372-23.984,10.59-35.55,15.359c-7.192,2.952-17.291,6.84-23.285,8.123c-3.945,0.871-7.067,1.79-9.755,2.242
						c-1.333,0.26-2.544,0.44-3.688,0.448C174.758,396.891,173.742,396.923,172.693,396.555z"/>
				</g>
			</g>
			<g style="clip-path:url(#SVGID_00000036217393604559980580000007607362166734741633_);">
				<g>
					<path style="fill:#FFC619;" d="M70.438,409.484c-0.502-0.665-0.2-1.616,0.341-2.009c0.175-0.12,0.393-0.241,0.655-0.362
						c0.257-0.099,0.554-0.189,0.895-0.272c0.683-0.174,1.533-0.297,2.556-0.367c1.449-0.077,2.985-0.251,4.555-0.328
						c0.392-0.018,0.787-0.036,1.186-0.055l0.599-0.02l0.3-0.005c0.11-0.074,0.212-0.089,0.319-0.137
						c0.21-0.067,0.429-0.205,0.634-0.236l0.605,0.006c0.404,0.011,0.81,0.023,1.219,0.034c1.633,0.066,3.293,0.219,4.981,0.335
						c1.686,0.134,3.386,0.412,5.102,0.584c1.862,0.218,3.903,0.43,6.038,0.414c1.068,0.001,2.157,0.003,3.259,0.004
						c1.101-0.054,2.214-0.109,3.33-0.164c2.235-0.076,4.46-0.388,6.619-0.62c2.156-0.257,4.22-0.659,6.146-0.944
						c1.132-0.213,2.271-0.464,3.423-0.7c1.151-0.239,2.314-0.468,3.464-0.783c2.309-0.586,4.642-1.179,6.971-1.77
						c4.67-1.163,9.26-2.549,13.723-3.714c3.948-1.048,8.112-2.705,9.477-2.439c1.341,0.247,1.292,0.945,0.581,1.918
						c-0.712,0.968-2.086,2.199-3.403,3.391c-1.573,1.007-3.211,2.071-4.924,3.114c-1.745,0.963-3.546,1.952-5.423,2.834
						c-1.91,0.787-3.85,1.592-5.832,2.283l-2.999,0.957c-1.002,0.309-1.996,0.639-3.022,0.832c-6.173,1.497-12.92,2.7-19.793,3.559
						c-6.874,0.891-13.896,1.21-20.573,1.148c-2.072-0.076-4.563-0.078-6.907-0.455c-1.174-0.161-2.317-0.339-3.359-0.558
						c-0.246-0.166-0.485-0.331-0.715-0.509c-0.228-0.19-0.475-0.194-0.699-0.301c-0.456-0.165-0.878-0.332-1.261-0.5
						C74.473,411.968,71.919,411.372,70.438,409.484z"/>
				</g>
			</g>
			<g style="clip-path:url(#SVGID_00000036217393604559980580000007607362166734741633_);">
				<g>
					<path style="fill:#FFC619;" d="M174.453,411.017c-1.277-0.685-1.056-2.336-0.132-2.964c0.606-0.405,1.552-0.79,2.859-1.168
						c0.653-0.192,1.398-0.443,2.233-0.626c0.835-0.158,1.762-0.305,2.785-0.443c2.903-0.33,5.96-0.852,9.139-1.201
						c1.589-0.183,3.209-0.347,4.855-0.492c1.644-0.199,3.311-0.417,5.002-0.59c3.383-0.331,6.861-0.536,10.371-0.944
						c3.511-0.372,7.099-0.534,10.661-0.977c3.878-0.418,8.122-0.854,12.48-1.729c2.185-0.408,4.416-0.825,6.672-1.247
						c2.232-0.536,4.488-1.079,6.749-1.622c4.544-1.015,8.989-2.464,13.331-3.726c2.181-0.602,4.259-1.401,6.312-2.09
						c2.047-0.707,4.039-1.394,5.956-2.056c8.961-3.435,18.278-7.252,27.21-11.782c4.542-2.114,8.884-4.586,13.289-6.804
						c2.198-1.118,4.283-2.397,6.412-3.556c1.065-0.579,2.095-1.203,3.178-1.729c0.536-0.273,1.071-0.544,1.603-0.815
						c0.52-0.292,1.037-0.584,1.553-0.874c1.833-1.027,3.711-2.08,5.526-3.097c0.913-0.506,1.81-1.004,2.679-1.485
						c0.865-0.489,1.656-1.024,2.437-1.494c3.098-1.911,5.597-3.354,6.723-3.714c2.229-0.714,1.926,0.16,0.462,1.87
						c-1.465,1.705-4.1,4.227-6.591,6.668c-2.898,2.402-5.951,4.854-9.097,7.365c-0.797,0.611-1.626,1.186-2.444,1.788
						c-0.844,0.563-1.692,1.128-2.544,1.697c-1.71,1.127-3.431,2.277-5.191,3.387c-3.593,2.091-7.211,4.263-10.953,6.211
						c-1.89,0.938-3.781,1.875-5.668,2.812c-1.895,0.921-3.763,1.888-5.699,2.685c-11.601,5.322-24.533,10.147-37.851,14.225
						c-13.325,4.067-27.081,7.254-40.304,9.459c-8.215,1.344-19.782,2.642-26.336,1.917c-2.158-0.183-4.104-0.296-5.872-0.392
						c-1.768-0.077-3.358-0.294-4.797-0.451c-0.719-0.089-1.401-0.185-2.047-0.295c-0.647-0.107-1.257-0.325-1.836-0.498
						C176.413,411.886,175.381,411.519,174.453,411.017z"/>
				</g>
			</g>
			<g style="clip-path:url(#SVGID_00000036217393604559980580000007607362166734741633_);">
				<g>
					<path style="fill:#FFC619;" d="M195.96,426.978c-1.124-0.906-0.817-1.983,0.128-2.551c0.307-0.169,0.697-0.352,1.173-0.547
						c0.468-0.138,1.018-0.263,1.652-0.379c1.269-0.231,2.875-0.423,4.836-0.581c0.695-0.048,1.402-0.134,2.115-0.2
						c0.711-0.046,1.431-0.093,2.16-0.14c1.456-0.097,2.943-0.172,4.455-0.226c1.512-0.051,3.051-0.092,4.612-0.091
						c1.561-0.06,3.148-0.121,4.756-0.182c1.606-0.044,3.231-0.069,4.873-0.074l1.234,0l1.238-0.061
						c0.828-0.035,1.658-0.071,2.492-0.106c3.333-0.159,6.729-0.076,10.113-0.339c3.681-0.211,7.716-0.398,11.866-1.083
						c2.081-0.306,4.206-0.617,6.354-0.933c2.125-0.449,4.274-0.902,6.427-1.357c4.33-0.82,8.553-2.151,12.682-3.268
						c2.076-0.525,4.043-1.286,5.99-1.921c1.941-0.656,3.83-1.295,5.647-1.91c8.47-3.266,17.26-6.946,25.584-11.464
						c4.28-2.039,8.307-4.512,12.401-6.75c1.034-0.544,2.005-1.179,2.986-1.791c0.983-0.61,1.962-1.217,2.935-1.821
						c0.97-0.609,1.965-1.174,2.94-1.758l1.466-0.862l1.405-0.93c1.662-1.089,3.363-2.205,5.009-3.284
						c0.829-0.535,1.632-1.076,2.474-1.521c0.81-0.485,1.575-0.979,2.298-1.455c2.827-1.979,5.125-3.48,6.198-3.861
						c2.126-0.759,1.941,0.129,0.704,1.892c-0.62,0.879-1.505,1.972-2.508,3.162c-1.004,1.189-2.137,2.461-3.152,3.82
						c-1.218,1.344-2.644,2.491-4.022,3.75c-1.404,1.23-2.83,2.479-4.273,3.743c-3.002,2.377-6.174,4.702-9.428,6.992
						c-3.366,2.111-6.747,4.315-10.251,6.31c-1.777,0.953-3.552,1.916-5.346,2.832c-1.795,0.914-3.559,1.882-5.408,2.652
						c-2.784,1.243-5.624,2.512-8.508,3.8c-2.939,1.152-5.923,2.323-8.939,3.505c-6.094,2.19-12.352,4.36-18.78,6.096
						c-12.815,3.603-26.09,6.116-38.837,7.476c-1.986,0.162-4.166,0.339-6.416,0.523c-1.126,0.075-2.269,0.189-3.417,0.222
						c-1.149,0.009-2.3,0.017-3.437,0.026c-2.275,0.004-4.496-0.023-6.536-0.095c-2.04-0.079-3.894-0.399-5.441-0.648
						c-2.041-0.362-3.885-0.637-5.56-0.879c-0.418-0.065-0.827-0.109-1.224-0.187c-0.397-0.07-0.778-0.205-1.152-0.3
						c-0.746-0.201-1.454-0.392-2.128-0.573c-1.344-0.361-2.542-0.723-3.612-1.133C197.721,428.091,196.768,427.705,195.96,426.978z
						"/>
				</g>
			</g>
			<g style="clip-path:url(#SVGID_00000036217393604559980580000007607362166734741633_);">
				<g>
					<path style="fill:#FFC619;" d="M352.502,236.638c-0.81,0.187-1.799-0.36-2.164-0.94c-0.523-0.781-0.596-1.957-0.613-3.79
						c-0.381-5.359,1.639-10.699,4.653-15.709c1.617-2.727,3.188-6.137,4.429-9.523c1.241-3.398,2.121-6.836,2.517-9.732
						c0.506-3.446,0.417-6.895-0.352-10.131c-0.803-3.306-2.13-7.16-2.805-11.353c-0.309-1.842-0.429-3.935-0.052-5.675
						c0.174-0.865,0.383-1.63,0.72-2.229c0.142-0.297,0.301-0.553,0.457-0.763c0.076-0.105,0.153-0.198,0.221-0.279l0.045-0.059
						c0.117-0.014,0.078-0.034,0.123-0.05c0.051-0.033,0.099-0.063,0.143-0.091c0.709-0.43,0.926-0.539,1.18-0.44
						c0.227,0.099,0.541,0.427,0.979,0.86c0.308,0.427,0.774,0.962,1.177,1.504c0.423,0.55,0.855,1.105,1.353,1.627
						c0.297,0.596,0.657,1.197,0.98,1.809c0.314,0.631,0.633,1.271,0.956,1.918c0.659,1.319,1.353,2.725,2.029,4.255
						c0.693,1.523,1.316,3.191,1.798,5.011c0.503,1.807,0.835,3.825,0.952,5.763c0.185,2.969,0.005,6-0.439,8.969
						c-0.458,2.965-1.165,5.872-1.982,8.697c-0.815,2.828-1.755,5.563-2.673,8.22c-0.914,2.634-1.819,5.24-2.7,7.777
						c-1.05,3.173-2.844,7.459-4.868,9.397c-0.319,0.326-0.607,0.644-0.875,0.95c-0.247,0.315-0.648,0.538-0.903,0.809
						c-0.535,0.528-1.017,1.002-1.454,1.434C354.423,235.711,353.692,236.371,352.502,236.638z"/>
				</g>
			</g>
			<g style="clip-path:url(#SVGID_00000036217393604559980580000007607362166734741633_);">
				<g>
					<path style="fill:#FFC619;" d="M342.477,171.731c-0.632-0.838-0.614-2.286-0.199-3.05c0.136-0.235,0.313-0.489,0.535-0.76
						c0.223-0.21,0.49-0.412,0.804-0.605c0.627-0.384,1.438-0.745,2.449-1.053c5.728-1.735,13.093-1.657,20.175,0.196
						c3.829,1.089,8.342,2.235,12.831,3.665c2.249,0.697,4.473,1.519,6.619,2.33c1.06,0.446,2.102,0.885,3.117,1.312
						c1.013,0.43,1.978,0.91,2.917,1.342c4.425,2.12,8.839,4.767,12.924,8.007c2.034,1.659,3.929,3.515,5.594,5.557
						c1.637,2.064,3.01,4.339,4.004,6.727c0.841,2.137,1.304,4.55,1.382,6.523c0.095,1.981-0.256,3.517-0.669,4.081
						c-0.814,1.12-1.408,0.648-2.002-0.317c-0.566-0.98-1.308-2.468-2.22-3.689c-0.363-0.704-0.811-1.384-1.253-2.057
						c-0.474-0.654-0.955-1.318-1.442-1.99c-0.984-1.326-2.09-2.621-3.305-3.869c-2.364-2.572-5.087-4.954-8.113-7.107
						c-4.515-3.352-10.044-6.179-16.004-7.978c-2.961-0.947-6.031-1.63-9.086-2.167c-3.069-0.503-6.129-0.825-9.123-1.035
						c-3.72-0.288-8.881-0.462-11.807-1.226c-1.929-0.543-3.519-0.697-4.836-1.018c-0.66-0.14-1.254-0.315-1.797-0.578
						C343.426,172.691,342.938,172.413,342.477,171.731z"/>
				</g>
			</g>
			<g style="clip-path:url(#SVGID_00000036217393604559980580000007607362166734741633_);">
				<g>
					<path style="fill:#FFC619;" d="M427.251,149.051c0.782,0.057,1.704,0.957,1.851,1.605c0.161,0.812,0.042,2.181-0.757,3.97
						c-0.276,0.643-0.546,1.345-0.918,1.967c-0.422,0.562-0.861,1.148-1.36,1.684c-0.501,0.532-1.033,1.058-1.591,1.577
						c-0.574,0.489-1.177,0.965-1.8,1.431c-2.51,1.837-5.548,3.109-8.66,3.883c-3.388,0.831-7.288,1.814-11.267,2.464
						c-3.973,0.677-8.013,1.068-11.467,1.161c-4.093,0.099-8.367,0.013-12.536-0.498c-2.081-0.284-4.137-0.642-6.134-1.084
						c-1.996-0.452-3.948-0.919-5.785-1.622c-3.273-1.151-6.759-2.646-7.434-3.798c-0.668-1.15-0.22-1.773,0.767-2.259
						c0.986-0.475,2.509-0.806,3.953-1.16c3.029-0.149,6.222-0.185,9.391,0.137c3.179,0.287,6.391,0.56,9.511,0.979
						c4.758,0.594,9.944,0.651,14.979-0.052c5.043-0.688,9.969-2.259,14.142-4.43c2.615-1.357,5.934-3.423,8.17-4.166
						c0.768-0.213,1.359-0.555,1.978-0.78c0.675-0.159,1.222-0.388,1.777-0.545c0.553-0.161,1.066-0.299,1.567-0.4
						C426.145,149.028,426.69,149.016,427.251,149.051z"/>
				</g>
			</g>
			<g style="clip-path:url(#SVGID_00000036217393604559980580000007607362166734741633_);">
				<g>
					<path style="fill:#FFC619;" d="M405.751,112.945c0.814,0.069,1.72,0.866,1.992,1.497c0.39,0.856,0.311,1.955,0.003,3.606
						c-0.249,1.143-0.449,2.421-1.009,3.471c-0.507,1.097-1.112,2.184-1.811,3.247c-1.4,2.124-3.319,4.03-5.462,5.733
						c-2.345,1.831-4.923,4.182-7.689,6.445c-2.752,2.257-5.672,4.478-8.456,6.093c-3.291,1.862-6.948,3.534-10.835,4.561
						c-3.92,0.88-8.017,1.169-11.799,0.526c-3.367-0.538-6.779-2.053-7.275-3.284c-0.518-1.201,0.012-1.848,0.905-2.339
						c0.45-0.248,0.991-0.428,1.568-0.63c0.561-0.197,1.171-0.412,1.765-0.621c2.443-0.42,4.895-0.804,7.382-1.409
						c2.484-0.598,4.959-1.403,7.443-2.164c1.884-0.609,3.804-1.439,5.661-2.492c1.859-1.051,3.702-2.205,5.473-3.596
						c3.547-2.736,6.724-6.125,9.493-9.605c0.866-1.078,1.885-2.388,2.96-3.568c1.111-1.147,2.253-2.191,3.283-2.783
						c0.34-0.193,0.652-0.393,0.943-0.587c0.282-0.201,0.625-0.333,0.904-0.498c0.579-0.312,1.085-0.612,1.57-0.861
						c0.484-0.249,0.947-0.452,1.424-0.59C404.668,112.967,405.132,112.872,405.751,112.945z"/>
				</g>
			</g>
			<g style="clip-path:url(#SVGID_00000036217393604559980580000007607362166734741633_);">
				<g>
					<path style="fill:#FFC619;" d="M53.45,314.541c-0.309-0.829,0.351-1.909,1.017-2.179c0.43-0.167,1.02-0.26,1.793-0.301
						c0.749,0.005,1.651,0.115,2.73,0.307c1.531,0.272,3.118,0.611,4.739,0.985c0.81,0.193,1.743,0.159,2.551,0.397
						c0.794,0.264,1.602,0.533,2.419,0.804c1.617,0.567,3.242,1.191,4.864,1.839c0.882,0.157,1.672,0.535,2.472,0.898
						c0.798,0.368,1.599,0.737,2.4,1.107c3.465,1.654,7.787,2.932,12.184,3.575c4.381,0.666,8.836,0.6,12.782,0.276
						c4.653-0.375,9.547-1.256,14.433-2.285c2.455-0.527,4.905-1.054,7.319-1.572c2.439-0.473,4.86-0.931,7.244-1.331
						c2.111-0.343,4.334-0.718,6.23-0.855c0.964-0.013,1.84,0.01,2.567,0.09c0.733,0.1,1.334,0.31,1.707,0.543
						c1.486,0.945,1.348,1.806,0.57,3.054c-0.387,0.63-0.955,1.29-1.611,1.939c-0.654,0.658-1.383,1.35-2.124,1.933
						c-3.436,1.886-7.303,3.497-11.408,4.793c-4.114,1.259-8.477,2.127-12.826,2.71c-6.635,0.852-13.914,1.601-21.534,1.127
						c-7.625-0.442-15.049-2.321-21.765-4.525c-0.521-0.176-1.067-0.361-1.631-0.552c-0.558-0.199-1.039-0.637-1.636-0.809
						c-1.154-0.455-2.298-0.993-3.421-1.522c-1.101-0.555-2.177-1.108-3.116-1.691c-0.986-0.492-1.67-1.384-2.288-2.014
						c-1.705-1.526-3.152-2.575-4.288-3.564c-0.568-0.494-1.062-0.965-1.465-1.467C53.966,315.725,53.682,315.13,53.45,314.541z"/>
				</g>
			</g>
			<g style="clip-path:url(#SVGID_00000036217393604559980580000007607362166734741633_);">
				<g>
					<path style="fill:#FFC619;" d="M62.198,288.28c-0.278-0.697,0.325-1.748,0.888-2.028c0.722-0.332,2-0.504,3.799-0.347
						c1.266,0.135,2.644,0.144,3.988,0.331c1.334,0.181,2.72,0.37,4.142,0.563l0.526,0.084c0.043,0.009,0.089,0.012,0.131,0.025
						l0.032,0.009l0.008,0.002c0.026-0.07,0.012-0.02,0.021-0.036l0.019-0.004l0.074-0.014l0.296-0.055
						c0.391-0.069,0.784-0.139,1.179-0.209c0.686,0.175,1.379,0.351,2.076,0.528c1.389,0.373,2.758,0.881,4.158,1.328
						c1.511,0.519,3.181,1.031,4.973,1.343c0.894,0.164,1.807,0.332,2.73,0.501c0.931,0.127,1.872,0.255,2.815,0.383
						c1.884,0.283,3.801,0.327,5.646,0.442c1.848,0.087,3.639,0.023,5.294,0.049c3.919-0.118,8.019-0.297,12.068-0.79
						c2.037-0.156,4.039-0.495,6.049-0.658c1.013-0.046,1.998-0.196,2.995-0.261c0.99-0.095,1.994-0.111,2.964-0.217
						c0.867-0.063,1.739-0.201,2.632-0.174c0.886-0.002,1.75,0.005,2.53-0.011c1.565-0.011,2.894,0.185,3.558,0.659
						c1.313,0.928,1.258,1.69,0.661,2.849c-0.612,1.108-1.849,2.369-3.061,3.588c-0.722,0.454-1.466,0.911-2.239,1.338
						c-0.78,0.397-1.582,0.782-2.402,1.154c-1.659,0.655-3.386,1.281-5.162,1.811c-1.788,0.455-3.629,0.809-5.479,1.068
						c-1.858,0.199-3.717,0.441-5.57,0.49c-1.41,0.054-2.848,0.11-4.307,0.166c-1.459,0.011-2.94,0.021-4.438,0.032
						c-2.992-0.083-6.047-0.159-9.112-0.403c-1.536-0.072-3.07-0.23-4.603-0.391l-2.301-0.222c-0.767-0.073-1.519-0.243-2.277-0.357
						c-3.033-0.46-6.006-1.099-8.9-1.74c-0.894-0.226-1.873-0.482-2.878-0.767c-0.501-0.148-1.009-0.299-1.518-0.45l-0.375-0.138
						c-0.119-0.066-0.219-0.19-0.329-0.282l-0.637-0.6c-0.393-0.481-0.897-0.597-1.344-0.846c-0.454-0.226-0.891-0.453-1.306-0.681
						c-0.832-0.45-1.544-0.98-2.128-1.44C64.996,291.52,63.006,290.333,62.198,288.28z"/>
				</g>
			</g>
			<g style="clip-path:url(#SVGID_00000036217393604559980580000007607362166734741633_);">
				<g>
					<path style="fill:#FFC619;" d="M68.841,261.167c-0.103-0.851,0.697-2.051,1.334-2.408c0.41-0.221,0.945-0.383,1.627-0.514
						c0.647-0.071,1.396-0.036,2.283,0.057c1.262,0.128,2.511,0.385,3.853,0.549c0.34,0.031,0.684,0.058,1.022,0.1
						c0.313,0.09,0.628,0.181,0.945,0.273c0.631,0.185,1.263,0.383,1.891,0.608c1.259,0.433,2.51,0.937,3.753,1.48
						c0.619,0.285,1.24,0.557,1.854,0.859c0.62,0.294,1.275,0.487,1.864,0.858c2.611,1.474,5.931,2.678,9.339,3.343
						c3.417,0.678,6.865,0.959,9.783,0.857c3.486-0.076,7.058-0.805,10.508-1.656c3.457-0.869,6.779-2.054,9.902-3.436
						c0.691-0.308,1.405-0.636,2.094-0.968c0.702-0.321,1.393-0.636,2.005-0.954c1.285-0.57,2.46-0.965,3.209-0.898
						c1.443,0.097,1.732,0.667,1.745,1.894c0.004,0.608-0.086,1.358-0.283,2.134c-0.187,0.785-0.525,1.551-0.826,2.356
						c-1.864,2.911-4.672,5.5-7.942,7.393c-3.272,1.89-6.936,3.271-10.634,3.868c-5.607,0.971-11.797,1.107-17.841,0.396
						c-3.019-0.342-6.005-0.935-8.903-1.645c-1.446-0.363-2.882-0.738-4.282-1.159c-1.406-0.408-2.8-0.815-4.08-1.431
						c-1.66-0.601-3.599-1.414-5.353-2.355c-0.887-0.457-1.705-0.976-2.449-1.475c-0.739-0.504-1.381-1.012-1.801-1.657
						C71.061,264.64,69.018,263.874,68.841,261.167z"/>
				</g>
			</g>
			
				<use xlink:href="#SVGID_1_"  style="overflow:visible;fill:none;stroke:#002A5C;stroke-linecap:round;stroke-linejoin:round;stroke-miterlimit:10;"/>
		</g>
		<g>
			<path style="fill:#002A5C;" d="M207.454,188.968c-3.138-0.812-6.409-1.08-9.633-0.79c-0.912,0.082-1.869,0.229-2.589,0.808
				c-1.351,1.087-1.289,3.324-0.335,4.787s3.854,4.013,5.375,4.831c3.396,1.827,5.066,2.946,8.462,4.773
				c5.634,3.031,11.744,5.12,17.912,6.722c6.168,1.602,12.943,1.634,18.652-1.246c0.895-0.451,1.807-1.025,2.235-1.948
				c1.118-2.413-1.658-4.722-3.998-5.896c-4.985-2.501-9.971-5.002-14.956-7.504c-2.311-1.16-4.638-2.326-7.116-3.038
				c-2.514-0.723-5.131-0.966-7.732-1.205c-4.667-0.43-9.334-0.859-14.002-1.289"/>
		</g>
		<g>
			<path style="fill:#002A5C;" d="M199.344,180.501c-9.476-3.087-16.383-12.761-16.227-22.726c0.033-2.132,0.331-4.394-0.647-6.289
				c-0.699-1.354-1.966-2.33-2.774-3.622c-2.635-4.212,0.381-9.501,1.536-14.333c2.038-8.529-2.065-17.741,0.448-26.142
				c1.669-5.578,6.004-9.913,8.751-15.047c3.238-6.052,4.19-13.056,6.809-19.401c4.392-10.641,13.689-19.139,24.682-22.56
				c10.992-3.421,23.47-1.7,33.125,4.57c3.843,2.495,7.381,5.724,11.818,6.864c3.954,1.016,8.121,0.236,12.133-0.52
				c8.432-1.588,17.642-2.945,25.189,1.137c6.672,3.608,10.867,10.924,17.797,14.009c1.788,0.796,3.861,1.401,4.882,3.071
				c0.734,1.201,0.743,2.687,0.95,4.079c0.661,4.444,3.462,8.234,5.142,12.401c2.11,5.232,2.425,10.987,2.713,16.621
				c0.363,7.088,0.727,14.175,1.09,21.263c0.24,4.678,0.478,9.392-0.199,14.027c-1.773,12.135-9.802,22.717-19.803,29.816
				c-1.788,1.269-3.732,2.545-4.652,4.535c-0.869,1.878-0.664,4.05-0.88,6.108c-0.488,4.651-3.358,8.988-7.447,11.256
				c-3.616,2.006-7.883,2.389-11.812,3.68c-3.928,1.291-7.92,4.072-8.428,8.175c-0.136,1.094-0.013,2.233-0.367,3.277
				c-0.397,1.171-1.347,2.073-2.371,2.766c-6.107,4.128-14.606,1.802-20.617-2.464c-6.011-4.266-10.707-10.227-16.912-14.207
				c-6.805-4.365-14.981-6.07-22.107-9.89c-4.484-2.404-8.559-5.646-13.365-7.315c-5.009-1.739-11.26-2.13-13.994-6.673"/>
		</g>
		<path style="fill:#FFFFFF;" d="M229.469,159.424c-4.611,9.758-13.263,16.583-21.27,23.819c-5.714,5.164-13.73,6.935-11.833,9.069
			c4.629,5.207,8.237,6.706,9.763,7.594c11.933,6.943,17.068,7.955,29.941,9.546c1.375,0.17,3.857-0.046,4.773-1.085
			c0.449-0.509-0.514-6.056-0.397-6.725c0.638-3.648,0.817-7.511,2.691-10.706c2.251-3.839,6.672-6.185,8.385-10.292
			c0.617-1.479,0.835-3.096,0.874-4.697c0.176-7.102-3.274-14.199-8.968-18.447c-3.324-2.48-8.225-3.9-11.476-1.325
			c-2.515,1.992-2.392,4.025-4.562,7.063"/>
		<path style="fill:#FFFFFF;" d="M223.053,136.48c1.012-4.629,0.762-1.134,0.304-5.542c-0.699-6.731-1.393-13.574-0.148-20.226
			c2.785-14.876,15.641-26.888,30.392-30.275c14.751-3.386,30.737,1.248,42.564,10.692c4.757,3.798,9.024,8.508,11.003,14.264
			s1.225,4.617,0.646,8.956l-1.172,2.753c-2.352,9.751-4.703,19.502-7.054,29.253c-0.822,3.407-1.652,6.84-3.136,10.014
			c-1.49,3.188-3.602,6.037-5.699,8.863c-2.844,3.831-5.689,7.663-8.533,11.494c-2.755,3.711-5.664,7.554-9.798,9.621
			c-5.571,2.785-12.439,1.758-17.954-1.137c-3.836-2.013-7.154-4.822-10.28-7.848c-1.368-1.324-2.699-2.689-4.021-4.048
			c-3.969-4.079-8.001-8.248-10.98-13.055c-0.813-1.311-1.547-2.67-2.18-4.088c-2.954-6.614-5.398-13.906-3.662-21.428"/>
		<path style="fill:#FFFFFF;stroke:#002A5C;stroke-linecap:round;stroke-linejoin:round;stroke-miterlimit:10;" d="M232.166,163.999
			c-2.17-2.387-4.528-6.409-5.161-7.826c-2.954-6.614-5.398-13.906-3.662-21.428"/>
		<path style="fill:#FFFFFF;stroke:#002A5C;stroke-linecap:round;stroke-linejoin:round;stroke-miterlimit:10;" d="M223.053,136.48
			c1.012-4.629,0.762-1.134,0.304-5.542c-0.699-6.731-1.393-13.574-0.148-20.226c2.785-14.876,15.641-26.888,30.392-30.275
			c14.751-3.386,30.737,1.248,42.564,10.692c4.757,3.798,9.024,8.508,11.003,14.264s1.225,4.617,0.646,8.956l-1.172,2.753
			c-2.352,9.751-4.703,19.502-7.054,29.253c-0.822,3.407-1.652,6.84-3.136,10.014c-1.49,3.188-3.602,6.037-5.699,8.863
			c-2.844,3.831-5.689,7.663-8.533,11.494c-2.755,3.711-5.664,7.554-9.798,9.621c-5.571,2.785-12.439,1.758-17.954-1.137
			c-3.836-2.013-7.154-4.822-10.28-7.848"/>
		<g>
			<path style="fill:#002A5C;" d="M289.296,152.001c-0.013-0.074,0.043-0.251,0.081-0.311c0.05-0.078,0.125-0.136,0.225-0.174
				c0.285-0.112,0.566-0.115,0.874-0.051c0.336,0.074,0.797-0.041,1.118-0.171c0.387-0.154,0.752-0.403,1.115-0.59
				c0.163-0.082,0.343-0.181,0.48-0.122c0.272,0.115,0.262,0.346,0.221,0.569c-0.191,0.368-0.584,0.64-0.99,0.798
				c-0.617,0.252-1.353,0.45-2.057,0.507c-0.217,0.018-0.529,0.01-0.685-0.096C289.474,152.232,289.337,152.212,289.296,152.001z"/>
		</g>
		<g>
			<path style="fill:#002A5C;" d="M297.759,140.785c0.079,0.101,0.166,0.314-0.007,0.409c-0.104,0.049-0.297,0.08-0.571-0.001
				c-0.255-0.089-0.612-0.356-0.614-0.956c0.008-0.399,0.264-0.778,0.58-0.971c0.315-0.197,0.72-0.3,1.181-0.149
				c0.113,0.04,0.224,0.097,0.33,0.172c0.124,0.093,0.233,0.212,0.316,0.352c0.163,0.284,0.185,0.586,0.148,0.832
				c-0.09,0.475-0.339,0.932-0.971,1.144c-0.669,0.182-1.236-0.176-1.504-0.566c-0.269-0.394-0.382-0.873-0.215-1.4
				c0.177-0.516,0.569-0.832,0.964-0.983c0.397-0.149,0.819-0.163,1.235-0.021l0.23,0.079l0.136,0.165
				c0.151,0.182,0.256,0.388,0.321,0.599c0.171,0.573,0.106,1.35-0.565,1.871c-0.345,0.243-0.662,0.417-1.026,0.364
				c-0.184-0.027-0.445-0.189-0.622-0.289c-0.025-0.01-0.038-0.036-0.072-0.032l-0.127,0.053c-0.04-0.025-0.028-0.121-0.044-0.178
				c-0.038-0.105-0.116-0.151-0.16-0.238c-0.449-0.579-0.249-1.652,0.79-1.98c0.128-0.029,0.264-0.04,0.404-0.039
				c0.072,0.009,0.144,0.024,0.214,0.043l0.085,0.045c0.073,0.054,0.139,0.031,0.296,0.233c0.032,0.041,0.062,0.085,0.088,0.131
				l0.014,0.357c-0.005,0.237,0.062,0.5-0.071,0.689c-0.087,0.179-0.184,0.472-0.262,0.557l-0.231,0.245l-0.284,0.213
				c-0.155,0.109,0.265,0.067,0.127,0.155c-0.201-0.148-0.791,0.023-1.092-0.297c-0.233-0.258-0.367-0.604-0.394-0.967
				c-0.084-0.719,0.488-1.597,1.428-1.582c0.461-0.008,0.933,0.219,1.215,0.553c0.282,0.341,0.362,0.777,0.269,1.166
				c-0.084,0.393-0.335,0.735-0.662,0.931c-0.16,0.104-0.34,0.172-0.524,0.203c-0.173-0.15-0.373,0.099-0.628-0.033l-0.428-0.221
				l-0.088-0.274c-0.092-0.287-0.188-0.589-0.147-1.088c0.047-0.448,0.273-0.865,0.639-1.11c0.359-0.241,0.844-0.341,1.261-0.189
				c0.422,0.14,0.67,0.517,0.721,0.73c0.011,0.035,0.077,0.857,0.093,0.948v-0.145l-0.109,0.072
				c-0.018,0.02-0.128-0.132-0.217-0.072l0.03-0.298l-1.832,1.263c-0.214,0.153-0.155,0.092-0.181,0.098l-0.039-0.014l-0.078-0.029
				c-0.156-0.076-0.169-0.151-0.193-0.234c-0.019-0.082-0.021-0.164-0.028-0.25c-0.017-0.076-0.045-0.202-0.027-0.308
				c-0.015-0.109-0.033-0.219-0.013-0.337c0.024-0.233,0.093-0.488,0.257-0.741c0.079-0.126,0.19-0.247,0.331-0.349
				c0.066-0.055,0.149-0.095,0.23-0.137c0.04-0.018,0.006,0.007,0.013,0.008c0.013-0.003-0.053,0.044-0.078,0.065
				c-0.013,0.003-0.105,0.096-0.197,0.189l-0.131,0.131c-0.042,0.08-0.082,0.22-0.122,0.326c-0.072,0.231-0.191,0.446-0.183,0.699
				l-0.029,0.365c0,0.108-0.05,0.284,0.029,0.283l0.305,0.221c0.113,0.029,0.226,0.048,0.226,0.048c0.057,0.011-0.027,0-0.097-0.047
				c-0.039-0.025-0.081-0.057-0.125-0.1l-0.066-0.07l-0.033-0.039l-0.008-0.01l-0.004-0.005l-0.002-0.002l-0.001-0.001l0,0
				l-0.122,0.034l-0.108-0.181l0.108,0.145l-0.181,0.072c0.172-0.409,0.012-0.514,0.178-0.806c0.151-0.298,0.474-0.5,0.661-0.655
				c0.373-0.231,0.621-0.279,0.773-0.259c0.367,0.058,0.219,0.077,0.044,0.33c-0.093,0.102-0.212,0.27-0.283,0.414
				c-0.04,0.104-0.049,0.191-0.025,0.244c0.002,0.035-0.01,0.075,0.02,0.093c0.128,0.031,0.23-0.105,0.214-0.144
				c-0.023-0.046-0.077,0.077-0.012,0.041c0.032-0.006,0.065-0.038,0.033-0.064c-0.03-0.02-0.078,0.005-0.084,0.054
				c0,0,0.007,0.073,0.017,0.116c0.011,0.052,0.028,0.111,0.051,0.177l-0.576-0.263l-0.001,0.001l0-0.003l0.013-0.233
				c0.007,0.006,0.011,0.003,0.017,0.004c0.011,0,0.021-0.004,0.031-0.009c0.02-0.01,0.037-0.029,0.044-0.053
				c0.017-0.05-0.032-0.103-0.089-0.108c-0.058-0.01-0.116,0.042-0.115,0.103c-0.01,0.061,0.051,0.134,0.089,0.057
				c0.028-0.041,0.077-0.15,0.002-0.137c-0.055,0.012-0.079,0.087-0.036,0.115l0.008,0.004l0.003,0.001l0.002-0.003l0.001-0.001l0,0
				l0,0c0.009-0.015-0.081,0.129-0.042,0.068l0.001-0.003c0.014-0.022,0.035-0.073,0.035-0.073l0.02-0.005
				c0.003-0.024,0.007,0.028,0.036,0.084c0.01,0.022,0.025,0.042,0.033,0.051l0.005,0.005l0.001,0.001l-0.081-0.086l-0.001-0.001
				l-0.004-0.003l-0.013-0.01c-0.068-0.033-0.015-0.031-0.039-0.087c-0.01-0.045-0.036-0.088-0.047-0.093l0.367,0.244l-0.041,0.002
				c-0.023,0.005-0.051,0.013-0.06,0.021c0.018,0.041-0.076-0.097-0.1-0.094l-0.004-0.003l-0.002-0.001l0,0l-0.12-0.057l0.001,0
				l0.002,0.001l0.009,0.004c0.007,0.002,0.03,0.011,0.045,0.012c0.041,0.009,0.085,0.007,0.114,0.002
				c0.065-0.013,0.005-0.012-0.071,0.065c-0.034,0.031-0.063,0.082-0.072,0.103c-0.004,0.009-0.006,0.017-0.006,0.017v-0.004l0,0
				c0.001-0.019-0.007,0.169-0.004,0.089v0v0l0,0l0,0l0,0.001c0.015-0.006-0.079-0.16-0.124-0.176
				c-0.05-0.028,0.042,0.027,0.15,0.021c0.056-0.004,0.087-0.012,0.106-0.023l0.005-0.003l-0.012,0.012l-0.083,0.107
				c-0.007,0.004-0.04,0.094-0.035,0.156c0.01,0.076-0.003,0.01-0.012,0.015c-0.046-0.098-0.196-0.13-0.083-0.111
				C297.782,140.32,297.599,140.641,297.759,140.785z"/>
		</g>
		<g>
			<path style="fill:#002A5C;" d="M280.66,168.104c0.379-1.53,1.825-2.499,2.945-3.607c1.12-1.109,1.98-2.952,1.006-4.191
				c-0.575-0.732-1.575-0.947-2.491-1.113c-0.559-0.101-1.118-0.203-1.677-0.304c-1.451-0.263-2.949-0.525-4.387-0.197
				c-1.437,0.328-2.811,1.405-3.009,2.866c-0.24,1.765,1.208,3.261,2.535,4.449c1.315,1.178,2.773,2.419,4.536,2.53
				c0.206,0.013,0.433,0.002,0.585-0.137c0.155-0.142,0.183-0.373,0.201-0.582c0.048-0.563,0.097-1.127,0.145-1.69"/>
		</g>
		<g>
			<path style="fill:none;stroke:#5F5F5F;stroke-miterlimit:10;" d="M324.882,114.639"/>
		</g>
		<g>
			<path style="fill:#002A5C;" d="M233.229,90.477c11.324,0.359,22.755,0.732,33.72,3.246c10.965,2.514,21.58,7.383,28.524,15.265
				c4.002,4.543,6.789,10.052,11.952,13.572c1.698,1.158,3.789,2.096,5.916,1.829c4.289-0.537,5.871-5.177,6.516-8.948
				c0.741-4.328,1.482-8.656,2.223-12.984c0.702-4.101,1.391-8.375-0.039-12.327c-2.324-6.422-9.585-10.366-16.634-12.998
				c-7.053-2.633-14.458-4.533-22.013-5.65c-3.247-0.48-6.6-0.813-9.81-0.167c-8.393,1.688-15.359,9.813-23.621,7.682
				c-4.887-1.26-8.462-5.988-13.546-5.743c-1.611,0.077-3.154,0.686-4.412,1.576c-5.184,3.667-3.742,12.215,2.428,14.398
				c2.553,0.903,5.498,0.826,7.908,1.995"/>
		</g>
		<g>
			<path style="fill:#002A5C;" d="M273.209,91.351c-3.063-0.062-5.646,2.211-7.631,4.545c-1.985,2.333-3.859,4.981-6.682,6.171
				c-2.898,1.221-6.362,0.692-9.134,2.178c-3.376,1.809-4.709,6.013-7.675,8.436c-2.301,1.88-5.376,2.513-8.341,2.7
				c-2.032,0.128-4.121,0.067-6.028-0.647c-4.402-1.648-6.961-6.72-6.468-11.395c0.494-4.675,3.591-8.803,7.514-11.393
				c3.923-2.59,8.6-3.808,13.257-4.45c10.501-1.449,21.371-0.132,31.222,3.784"/>
		</g>
		<path style="fill:#FFFFFF;" d="M141.675,249.308c1.766-5.048,3.33-10.168,4.686-15.341c3.294-12.562,5.355-25.829,2.509-38.499
			c-0.347-1.543-1.219-3.422-2.797-3.317c-0.825,0.055-1.495,0.681-1.992,1.341c-1.984,2.638-2.288,6.126-2.702,9.401
			c-0.76,6.006-2.365,12.343-6.877,16.379c-1.059,0.093-1.984-0.852-2.247-1.882c-0.263-1.03-0.032-2.115,0.199-3.153
			c2.44-10.951,4.881-21.902,7.321-32.853c0.502-2.254,0.65-5.267-1.469-6.187c-1.806-0.785-3.777,0.721-4.95,2.304
			c-1.172,1.582-2.27,3.501-4.176,3.995c-0.836,0.217-1.721,0.117-2.575,0.246c-1.681,0.254-3.092,1.356-4.418,2.419
			c-3.74,3-7.481,5.999-11.221,8.999c-0.84,0.673-1.705,1.378-2.184,2.342c-0.649,1.307-0.48,2.861-0.834,4.277
			c-0.548,2.194-2.275,3.855-3.743,5.575c-3.049,3.574-5.224,7.888-6.284,12.464c-0.264,1.139-0.46,2.329-0.214,3.472
			c0.339,1.573,1.457,2.84,2.298,4.213c3.321,5.419,2.331,12.547,5.126,18.255c1.909,3.898,5.403,6.763,8.958,9.254
			c5.458,3.824,12.111,7.195,18.549,5.477c5.571-1.486,7.967-4.848,9.268-10.055"/>
		<path style="fill:#FFFFFF;stroke:#002A5C;stroke-linecap:round;stroke-linejoin:round;stroke-miterlimit:10;" d="M132.64,258.489
			c2.275-0.607,4.021-1.527,5.378-2.757c1.967-1.783,3.12-4.217,3.89-7.298"/>
		<path style="fill:#FFFFFF;stroke:#002A5C;stroke-linecap:round;stroke-linejoin:round;stroke-miterlimit:10;" d="M141.675,249.308
			c1.766-5.048,3.33-10.168,4.686-15.341c3.294-12.562,5.355-25.829,2.509-38.499c-0.347-1.543-1.219-3.422-2.797-3.317
			c-0.825,0.055-1.495,0.681-1.992,1.341c-1.984,2.638-2.288,6.126-2.702,9.401c-0.76,6.006-2.365,12.343-6.877,16.379
			c-1.059,0.093-1.984-0.852-2.247-1.882c-0.263-1.03-0.032-2.115,0.199-3.153c2.44-10.951,4.881-21.902,7.321-32.853
			c0.502-2.254,0.65-5.267-1.469-6.187c-1.806-0.785-3.777,0.721-4.95,2.304c-1.172,1.582-2.27,3.501-4.176,3.995
			c-0.836,0.217-1.721,0.117-2.575,0.246c-1.681,0.254-3.092,1.356-4.418,2.419c-3.74,3-7.481,5.999-11.221,8.999
			c-0.84,0.673-1.705,1.378-2.184,2.342c-0.649,1.307-0.48,2.861-0.834,4.277c-0.548,2.194-2.275,3.855-3.743,5.575
			c-3.049,3.574-5.224,7.888-6.284,12.464c-0.264,1.139-0.46,2.329-0.214,3.472c0.339,1.573,1.457,2.84,2.298,4.213
			c3.321,5.419,2.331,12.547,5.126,18.255c1.574,3.214,4.225,5.725,7.099,7.904c0.612,0.464,1.235,0.913,1.859,1.35"/>
		<path style="fill:#FF4517;stroke:#002A5C;stroke-miterlimit:10;" d="M117.5,201.982l32.209-30.976c0,0,3.483-2.849,6.375,1.056
			l2.459,24.011c0,0,0.576,2.018-1.736,4.484l-31.388,32.111c0,0-5.063,2.748-7.377-2.17l-3.471-21.427
			C114.572,209.071,114.263,204.294,117.5,201.982z"/>
		<g>
			<g>
				<path style="fill:#002A5C;" d="M284.367,116.969c0,0-0.445-0.049-1.25-0.178c-0.803-0.123-1.964-0.341-3.374-0.529
					c-1.4-0.176-3.09-0.336-4.837-0.034c-1.756,0.324-3.763,1.081-5.07,2.913c0,0,0.006-0.232,0.09-0.65
					c0.076-0.422,0.278-1.023,0.692-1.707c0.802-1.376,2.672-2.913,4.999-3.501c2.314-0.604,4.731-0.322,6.344,0.378
					C283.59,114.371,284.524,115.464,284.367,116.969z"/>
			</g>
			<g>
				<path style="fill:#002A5C;" d="M300.89,123.191c0,0,0.256,0.115,0.692,0.406c0.428,0.297,1.027,0.795,1.605,1.583
					c0.57,0.785,1.128,1.865,1.355,3.196c0.248,1.315,0.139,2.896-0.517,4.363c0,0-0.219-0.692-0.64-1.554
					c-0.417-0.87-1.065-1.857-1.709-2.684C300.416,126.801,299.309,125.768,300.89,123.191z"/>
			</g>
		</g>
		<path style="fill:#0099C4;stroke:#002A5C;stroke-linecap:round;stroke-linejoin:round;stroke-miterlimit:10;" d="M230.286,88.748
			c-2.025,0.434-4.733-0.443-7.109-0.834c-0.83-0.137-1.709-0.296-2.337-0.855c-1.333-1.187-0.819-3.351-0.141-5.002
			c3.492-8.496,8.845-16.572,16.708-21.321c7.863-4.749,18.545-5.509,26.026-0.179c-6.129-1.202-12.757,0.446-17.609,4.379
			c-3.765,3.052-6.371,7.268-8.905,11.399c-1.493,2.435-3.013,4.934-3.589,7.732c-0.226,1.096-0.312,2.251-0.853,3.23
			c-0.541,0.979-1.736,1.727-2.775,1.31"/>
		<path style="fill:#0099C4;stroke:#002A5C;stroke-linecap:round;stroke-linejoin:round;stroke-miterlimit:10;" d="M218.918,100.815
			c0.064-2.757,0.721-5.499,1.913-7.985c0.64-1.334,1.432-2.599,1.938-3.989c0.481-1.323,0.691-2.733,1.178-4.054
			c0.487-1.321,1.331-2.608,2.631-3.149c1.3-0.541,3.081-0.026,3.529,1.309c0.492,1.468-0.711,2.889-1.535,4.2
			c-2.098,3.335-1.954,7.572-3.121,11.336c-0.418,1.347-1.15,2.775-2.489,3.217c-1.467,0.484-2.999-0.405-4.288-1.255"/>
		<g>
			<path style="fill:#FFFFFF;" d="M369.977,103.654c-2.014-4.599-6.165-7.984-10.695-10.15c-4.53-2.165-9.481-3.261-14.357-4.462
				c-0.885-0.218-1.779-0.444-2.586-0.866c-0.805-0.42-1.497-1.022-2.244-1.538c-3.496-2.42-7.946-2.864-12.182-3.234
				c-1.813-0.158-3.771-0.285-5.32,0.67c-1.549,0.955-2.227,3.456-0.8,4.587c-2.008,0.045-4.158,0.137-5.776,1.327
				s-2.233,3.917-0.663,5.169c0.362,0.288,0.822,0.494,1.033,0.905c0.673,1.312-1.554,1.985-2.767,2.825
				c-1.307,0.905-1.505,3.039-0.386,4.169c0.468,0.473,1.154,0.857,1.215,1.52c0.088,0.962-1.122,1.399-1.982,1.839
				c-2.641,1.351-3.113,5.176-1.743,7.808c1.369,2.632,4.002,4.328,6.546,5.855c4.553,2.733,9.253,5.339,14.37,6.757
				c7.433,2.06,15.576,1.454,22.622-1.683c1.222-0.544,2.567-1.175,3.84-0.766c0.931,0.299,1.017,1.942,1.784,2.548
				c3.191,2.519,8.8,0.642,11.591-2.314c2.791-2.956,3.678-7.278,3.514-11.34c-0.041-1.02-0.144-2.051-0.499-3.008
				c-0.376-1.012-1.018-1.899-1.653-2.771c-1.75-2.406-3.5-4.812-5.25-7.218"/>
			<path style="fill:#FFFFFF;stroke:#002A5C;stroke-linecap:round;stroke-linejoin:round;stroke-miterlimit:10;" d="
				M342.895,111.518c-1.369,1.41-2.623,2.95-4.186,4.142c-1.563,1.192-3.526,2.022-5.47,1.734c-2.491-0.369-4.332-2.408-6.371-3.884
				c-2.039-1.476-5.154-2.328-6.882-0.497c-0.28,0.297-0.511,0.718-0.37,1.101c0.087,0.236,0.297,0.402,0.496,0.556
				c3.724,2.886,7.115,6.2,10.088,9.855c0.551,0.678,1.114,1.389,1.896,1.78c0.561,0.281,1.211,0.29,1.817,0.452
				c5.001,1.334,8.498,1.293,13.246,0.466"/>
			<path style="fill:#FFFFFF;stroke:#002A5C;stroke-linecap:round;stroke-linejoin:round;stroke-miterlimit:10;" d="M354.65,124.672
				c5.317-1.637,9.735-5.948,11.502-11.223"/>
			<path style="fill:#FFFFFF;stroke:#002A5C;stroke-linecap:round;stroke-linejoin:round;stroke-miterlimit:10;" d="M321.126,88.823
				c4.977-0.107,9.954-0.213,14.931-0.319c2.3-0.049,4.874,0.006,6.503,1.631c0.605,0.604,1.034,1.476,0.831,2.306
				c-0.203,0.83-1.238,1.436-1.966,0.988"/>
			<path style="fill:#FFFFFF;stroke:#002A5C;stroke-linecap:round;stroke-linejoin:round;stroke-miterlimit:10;" d="
				M326.453,119.733c0.983-1.437,0.522-3.653-0.952-4.579"/>
			<path style="fill:#FFFFFF;stroke:#002A5C;stroke-linecap:round;stroke-linejoin:round;stroke-miterlimit:10;" d="M316.493,97.282
				c3.719-2.444,7.676-3.101,12.1-3.585c2.764-0.302,5.528-0.605,8.292-0.907c0.969-0.106,1.974-0.208,2.896,0.108
				c0.922,0.316,1.733,1.179,1.657,2.151c-0.105,1.335-1.636,1.996-2.922,2.371c-3.303,0.965-6.606,1.93-9.909,2.895"/>
			<path style="fill:#FFFFFF;stroke:#002A5C;stroke-linecap:round;stroke-linejoin:round;stroke-miterlimit:10;" d="
				M317.809,116.129c0.036-2.194,1.056-4.29,2.497-5.945c1.441-1.654,3.283-2.91,5.18-4.011c0.774-0.449,1.584-0.895,2.132-1.603
				c0.973-1.257,0.893-3.006,0.768-4.591c-0.036-0.454-0.092-0.952-0.425-1.262c-0.465-0.434-1.207-0.282-1.813-0.088
				c-6.04,1.935-11.391,5.017-15.441,10.658"/>
			<path style="fill:#FFFFFF;stroke:#002A5C;stroke-linecap:round;stroke-linejoin:round;stroke-miterlimit:10;" d="M321.745,100.56
				c-0.64,0.444-1.341,0.985-1.42,1.76c-0.084,0.829,0.632,1.568,1.43,1.804c0.798,0.237,1.654,0.095,2.474-0.049"/>
		</g>
		<g>
			<path style="fill:#FFFFFF;stroke:#002A5C;stroke-linecap:round;stroke-linejoin:round;stroke-miterlimit:10;" d="M374.64,114.35
				c0.333-0.965,0.208-3.121-0.147-4.077c-0.376-1.012-1.018-1.899-1.653-2.771c-1.75-2.406-3.5-4.812-5.25-7.218"/>
			<path style="fill:#FFFFFF;stroke:#002A5C;stroke-linecap:round;stroke-linejoin:round;stroke-miterlimit:10;" d="
				M369.977,103.654c-2.642-4.853-6.165-7.984-10.695-10.15c-4.53-2.165-9.481-3.261-14.357-4.462
				c-0.885-0.218-1.779-0.444-2.586-0.866c-0.805-0.42-1.497-1.022-2.244-1.538c-3.496-2.42-7.946-2.864-12.182-3.234
				c-1.813-0.158-3.771-0.285-5.32,0.67c-1.549,0.955-2.227,3.456-0.8,4.587c-2.008,0.045-4.158,0.137-5.776,1.327
				s-2.233,3.917-0.663,5.169c0.362,0.288,0.822,0.494,1.033,0.905c0.673,1.312-1.554,1.985-2.767,2.825
				c-1.307,0.905-1.505,3.039-0.386,4.169c0.468,0.473,1.154,0.857,1.215,1.52c0.088,0.962-1.122,1.399-1.982,1.839
				c-2.641,1.351-3.113,5.176-1.743,7.808c1.369,2.632,4.002,4.328,6.546,5.855c4.553,2.733,9.253,5.339,14.37,6.757
				c7.433,2.06,15.576,1.454,22.622-1.683c1.222-0.544,2.567-1.175,3.84-0.766c0.931,0.299,1.781,3.843,2.218,4.718"/>
			<path style="fill:#FFFFFF;stroke:#002A5C;stroke-linecap:round;stroke-linejoin:round;stroke-miterlimit:10;" d="
				M342.895,111.518c-1.369,1.41-2.623,2.95-4.186,4.142c-1.563,1.192-3.526,2.022-5.47,1.734c-2.491-0.369-4.332-2.408-6.371-3.884
				c-2.039-1.476-5.154-2.328-6.882-0.497c-0.28,0.297-0.511,0.718-0.37,1.101c0.087,0.236,0.297,0.402,0.496,0.556
				c3.724,2.886,7.115,6.2,10.088,9.855c0.551,0.678,1.114,1.389,1.896,1.78c0.561,0.281,1.211,0.29,1.817,0.452
				c5.001,1.334,8.498,1.293,13.246,0.466"/>
			<path style="fill:#FFFFFF;stroke:#002A5C;stroke-linecap:round;stroke-linejoin:round;stroke-miterlimit:10;" d="
				M354.643,123.788c5.317-1.637,9.851-4.738,11.618-10.013"/>
			<path style="fill:#FFFFFF;stroke:#002A5C;stroke-linecap:round;stroke-linejoin:round;stroke-miterlimit:10;" d="M321.126,88.823
				c4.977-0.107,9.954-0.213,14.931-0.319c2.3-0.049,4.874,0.006,6.503,1.631c0.605,0.604,1.034,1.476,0.831,2.306
				c-0.203,0.83-1.238,1.436-1.966,0.988"/>
			<path style="fill:#FFFFFF;stroke:#002A5C;stroke-linecap:round;stroke-linejoin:round;stroke-miterlimit:10;" d="
				M326.453,119.733c0.983-1.437,0.522-3.653-0.952-4.579"/>
			<path style="fill:#FFFFFF;stroke:#002A5C;stroke-linecap:round;stroke-linejoin:round;stroke-miterlimit:10;" d="M316.493,97.282
				c3.719-2.444,7.676-3.101,12.1-3.585c2.764-0.302,5.528-0.605,8.292-0.907c0.969-0.106,1.974-0.208,2.896,0.108
				c0.922,0.316,1.733,1.179,1.657,2.151c-0.105,1.335-1.636,1.996-2.922,2.371c-3.303,0.965-6.606,1.93-9.909,2.895"/>
			<path style="fill:#FFFFFF;stroke:#002A5C;stroke-linecap:round;stroke-linejoin:round;stroke-miterlimit:10;" d="
				M317.809,116.129c0.036-2.194,1.056-4.29,2.497-5.945c1.441-1.654,3.283-2.91,5.18-4.011c0.774-0.449,1.584-0.895,2.132-1.603
				c0.973-1.257,0.893-3.006,0.768-4.591c-0.036-0.454-0.092-0.952-0.425-1.262c-0.465-0.434-1.207-0.282-1.813-0.088
				c-6.04,1.935-11.391,5.017-15.441,10.658"/>
			<path style="fill:#FFFFFF;stroke:#002A5C;stroke-linecap:round;stroke-linejoin:round;stroke-miterlimit:10;" d="M321.745,100.56
				c-0.64,0.444-1.341,0.985-1.42,1.76c-0.084,0.829,0.632,1.568,1.43,1.804c0.798,0.237,1.654,0.095,2.474-0.049"/>
		</g>
		<path style="fill:#002A5C;stroke:#002A5C;stroke-miterlimit:10;" d="M121.948,202.004l30.23-29.073c0,0,2.17-2.748,3.471-0.145
			l2.748,22.564c0,0,0.868,2.459-1.302,4.773L125.853,231.8c0,0-2.748,3.616-3.616-1.736l-3.037-21.407
			C119.2,208.657,118.91,204.173,121.948,202.004z"/>
		<path style="fill:#FF4517;stroke:#002A5C;stroke-miterlimit:10;" d="M217.984,98.964c-2.835,0-2.847-0.034-5.72,0.437
			c-2.687,0.441-4.98,2.312-6.486,4.581c-1.506,2.269-2.323,4.919-3.005,7.555c-0.928,3.595-1.639,7.381-0.809,11
			c1.544,6.727,8.122,11.263,14.823,12.917c2.293,0.566,4.726,0.871,7.004,0.245c2.25-0.619,4.17-2.099,5.801-3.768
			c4.764-4.875,7.488-11.684,7.402-18.5c-0.017-1.33-0.14-2.679-0.613-3.922c-0.917-2.415-3.037-4.163-5.233-5.524
			c-3.978-2.466-6.94-4.576-13.221-4.965"/>
		<path style="fill:#0099C4;stroke:#002A5C;stroke-linecap:round;stroke-linejoin:round;stroke-miterlimit:10;" d="M214.327,100.136
			c-2.566,0.84-4.193,1.921-5.546,3.672c-2.178,2.817-2.989,6.349-3.23,9.849c-0.315,4.577-0.135,9.538,2.744,13.199
			c1.586,2.017,3.878,3.453,6.334,4.363c3.637,1.347,7.768,1.58,11.449,0.348c3.681-1.232,6.843-3.99,8.177-7.504
			c0.899-2.368,0.962-4.941,1.016-7.461c0.058-2.739,0.593-6.028-0.794-8.423c-1.599-2.762-5.24-5.753-8.198-7.144
			c-3.734-1.756-7.834-1.715-11.903-0.89L214.327,100.136z"/>
		<path style="fill:#FFFFFF;stroke:#002A5C;stroke-linecap:round;stroke-linejoin:round;stroke-miterlimit:10;" d="M127.18,181.574
			c2.483,0.679,4.966,1.359,7.449,2.038c0.39,0.107,0.816,0.24,1.028,0.584c0.154,0.25,0.16,0.56,0.161,0.853
			c0.005,0.893,0.01,1.786,0.015,2.679c-2.741,0.901-5.659-0.427-8.527-0.742c-3.334-0.366-6.646,0.658-9.844,1.669
			c-1.137,0.359-2.339,0.762-3.1,1.68"/>
		<path style="fill:#FFFFFF;stroke:#002A5C;stroke-linecap:round;stroke-linejoin:round;stroke-miterlimit:10;" d="M118.921,188.271
			c3.698-1.113,7.662-1.33,11.46-0.627c1.326,0.246,2.771,0.706,3.425,1.885c0.912,1.646-0.352,3.819-2.09,4.54
			c-1.738,0.721-3.714,0.404-5.559,0.034c-1.845-0.37-3.782-0.777-5.577-0.214c-2.075,0.651-3.533,2.454-5.219,3.827
			c-1.993,1.624-4.426,2.701-6.968,3.085c-0.419-0.883-0.613-1.871-0.56-2.847"/>
		<path style="fill:#FFFFFF;stroke:#002A5C;stroke-linecap:round;stroke-linejoin:round;stroke-miterlimit:10;" d="M103.506,206.09
			c0.759-2.278,1.789-5.003,3.445-6.151c0.862-0.598,1.823-1.051,2.833-1.334"/>
		<path style="fill:#FFFFFF;stroke:#002A5C;stroke-linecap:round;stroke-linejoin:round;stroke-miterlimit:10;" d="M106.326,200.232
			c2.929-3.146,4.885-3.806,7.594-5.533c2.732-1.742,6.783-2.436,9.979-2.972c0.285-0.048,0.584-0.09,0.859,0.001
			c0.731,0.242,0.866,1.23,0.701,1.982c-0.459,2.102-2.186,3.746-4.135,4.657c-1.949,0.911-3.644,1.8-5.777,2.081
			c-0.441,2.199-1.358,3.801-1.799,6c-0.076,0.379-0.166,0.784-0.449,1.047"/>
		<g>
			<path style="fill:#FFFFFF;" d="M109.879,199.117c-0.824,0.763-2.061,0.937-2.901,1.683c-0.504,0.447-0.82,1.063-1.126,1.663
				c-1.325,2.605-2.684,5.357-2.573,8.278c0.005,0.121,0.015,0.25,0.087,0.347c0.09,0.12,0.25,0.16,0.397,0.192
				c0.72,0.155,1.44,0.31,2.16,0.465c0.564,0.121,1.141,0.243,1.713,0.166c0.664-0.09,1.259-0.441,1.834-0.785
				c0.737-0.44,1.474-0.881,2.211-1.321c0.358-0.214,0.729-0.44,0.952-0.792c0.156-0.246,0.228-0.535,0.294-0.819
				c0.329-1.414,0.586-2.844,0.769-4.284c0.231-1.818,0.279-3.862-0.914-5.253c-0.305-0.356-0.721-0.664-1.19-0.661
				c-1.117,0.007-1.664,1.665-2.78,1.697"/>
		</g>
		<g>
			<path style="fill:none;stroke:#002A5C;stroke-linecap:round;stroke-linejoin:round;" d="M229.02,160.202
				c-6.295,10.208-21.299,28.639-35.474,28.748"/>
		</g>
		<path style="fill:none;stroke:#FF4517;stroke-width:2;stroke-linecap:round;stroke-linejoin:round;stroke-miterlimit:10;" d="
			M110.666,216.396c0,0-3.182,6.292,2.025,24.662c5.207,18.37,11.282,41.079,24.879,55.543c13.596,14.464,48.022,82.88,48.6,83.459
			c0.579,0.579,3.472,8.389,9.836,13.162c0,0,13.741,12.439,20.684-5.496c0,0,9.257-15.043,0.579-45.129
			c-8.679-30.086,28.061-62.775,28.639-77.529c0.578-14.754-6.364-37.029-15.332-60.461c0,0-6.075-25.168-6.075-36.739
			c0,0-0.289-13.018-4.339-24.734"/>
		<path style="fill:#FF4517;stroke:#002A5C;stroke-miterlimit:10;" d="M215.821,133.443c0,0,1.591-1.591,3.182,0.434
			c0,0-0.434,6.364,2.314,9.257c0,0-0.289,0.723-1.736,0.723C219.582,143.857,215.387,138.795,215.821,133.443z"/>
		<g>
			<path style="fill:none;stroke:#002A5C;stroke-linecap:round;stroke-linejoin:round;" d="M250.802,182.843
				c-1.347,1.171-2.653,2.389-3.915,3.652c-2.1,2.102-4.128,4.413-5.067,7.232c-0.547,1.642-0.698,3.386-0.846,5.11
				c-0.049,0.571-0.095,1.164,0.103,1.702s0.716,1.003,1.287,0.947"/>
		</g>
		<path style="fill:#FF4517;stroke:#002A5C;stroke-linecap:round;stroke-linejoin:round;stroke-miterlimit:10;" d="M112.401,211.55
			l2.748-3.038c0,0,3.761,0,3.037,3.182l-2.604,3.038c0,0-1.012-0.434-3.327,2.17c0,0-0.723-2.893-2.604-1.446
			C109.653,215.456,112.257,213.72,112.401,211.55z"/>
		<g>
			<g>
				<path style="fill:#193F6C;" d="M182.936,235.333c0.05,0.182-0.074,0.247-0.202,0.189c-0.172-0.072-0.436-0.308-0.836-0.7
					c-1.207-1.056-2.536-2.44-3.937-3.796c-0.762-0.733-1.716-1.548-2.755-2.264c-1.023-0.74-2.123-1.38-3.081-1.917
					c-1.151-0.605-2.378-1.198-3.639-1.694c-1.25-0.526-2.534-0.942-3.75-1.345c-1.075-0.364-2.285-0.672-2.56-0.856
					c-0.546-0.363,0.482-0.307,1.438-0.285c0.512,0.083,1.036,0.167,1.571,0.254c0.532,0.122,1.071,0.269,1.617,0.421
					c1.08,0.34,2.169,0.745,3.202,1.223c3.161,1.436,6.568,3.629,9.281,6.054c0.85,0.745,1.944,1.881,2.429,2.63
					C182.332,234.247,182.786,234.805,182.936,235.333z"/>
			</g>
		</g>
		<g>
			<path style="fill:#002A5C;" d="M284.719,149.436c0.091-0.044,0.315-0.104,0.409-0.123c0.128-0.026,0.225-0.032,0.313-0.032
				c0.248,0.003,0.314,0.032,0.287,0.168c-0.028,0.151,0.122,0.243,0.223,0.292c0.132,0.058,0.261,0.065,0.351,0.247
				c0.043,0.075,0.103,0.165,0.111,0.326c0.018,0.318-0.072,0.486-0.197,0.637c-0.231,0.145-0.524,0.122-0.709-0.044
				c-0.296-0.226-0.618-0.465-0.91-0.75c-0.09-0.087-0.198-0.237-0.143-0.367C284.524,149.624,284.465,149.563,284.719,149.436z"/>
		</g>
		<g>
			<path style="fill:none;stroke:#002A5C;stroke-linecap:round;stroke-linejoin:round;" d="M139.364,257.408
				c1.303,11.113-0.944,22.34-0.596,33.524c0.396,12.725,4.128,25.07,6.785,37.521c2.656,12.451,4.212,25.624,0.336,37.751"/>
		</g>
		<g>
			<path style="fill:none;stroke:#002A5C;stroke-linecap:round;stroke-linejoin:round;" d="M146.551,329.75
				c3.747,5.019,6.451,10.813,7.892,16.909"/>
		</g>
		<g>
			<g>
				<path style="fill:#002A5C;" d="M277.945,128.598c-0.247,0.083-0.271-0.154-0.326-0.239c-0.032-0.065-0.101-0.108-0.148-0.127
					c-0.026-0.011-0.06-0.02-0.083-0.008c0.031-0.012,0.098-0.083,0.095-0.097c0.001,0.016-0.006-0.022,0.01,0.031
					c0.016,0.04,0.071,0.093,0.088,0.1c0.059-0.011-0.213-0.009-0.159,0.001l-0.886,0.334c-0.137-0.497,0.029-1.021,0.339-1.378
					c0.302-0.358,0.815-0.646,1.424-0.567l0.442,0.057l0.177,0.413c0.215,0.504,0.282,1.07,0.19,1.606
					c-0.047,0.35-0.146,0.718-0.332,1.092l-0.55-1.055c0.247,0.082,0.724-0.198,0.849-0.608c0.121-0.396-0.031-0.636-0.351-0.783
					c-0.112-0.049-0.245-0.083-0.377-0.084c-0.116-0.009-0.303,0.042-0.272,0.04c-0.04,0.025-0.055,0.063-0.056,0.098
					c-0.001,0.036,0.002,0.07,0.015,0.128c-0.009,0.043,0.118,0.181,0.023,0.161c-0.031,0.002-0.024-0.047,0.037-0.058
					c0.009-0.014,0.019-0.015,0.029-0.018c0.015-0.009,0.039-0.002,0.063,0.003c-0.011-0.004,0.043-0.016-0.021-0.012l0.067-0.009
					c0.042-0.011,0.086-0.007,0.127-0.002c0.082,0.005,0.157,0.036,0.215,0.038c0.12,0.031,0.207,0.061,0.246,0.107
					c0.158,0.161,0.087,0.202-0.023,0.235c-0.133,0.049-0.241,0.001-0.391,0.374l-0.233,0.606l-0.24,0.614l-0.179,0.101
					c-0.4,0.091-0.344,0.277-0.035,0.452c0.045,0.006,0.084,0.073,0.135,0.029l0.167-0.267c-0.112,0.08-0.264,0.395-0.379,0.27
					c-0.249-0.061-0.483-0.188-0.692-0.353c-0.419-0.326-0.741-0.831-0.861-1.424c-0.126-0.584-0.034-1.283,0.392-1.818
					c0.256-0.336,0.642-0.602,1.086-0.739c0.443-0.119,0.749-0.111,1.12-0.053c0.687,0.119,1.427,0.551,1.748,1.345
					c0.316,0.796,0.072,1.641-0.373,2.203c-0.436,0.569-1.189,1.015-2.042,0.91l-1.115-0.137l0.536-0.973
					c0.151-0.275,0.22-0.602,0.167-0.902c-0.021-0.159-0.07-0.329-0.141-0.488l0.624,0.41c0.021,0.113-0.023,0.037-0.081,0.11
					c-0.051,0.05-0.067,0.06-0.114,0.07l-1.189,0.618c-0.015-0.019-0.026-0.033-0.037-0.047c-0.211-0.277-0.227-0.599-0.176-0.811
					c0.05-0.222,0.151-0.39,0.288-0.53c0.256-0.302,0.826-0.38,1.116-0.139c0.295,0.22,0.343,0.483,0.339,0.688
					C278.225,128.319,278.128,128.526,277.945,128.598z"/>
			</g>
			<g>
				<path style="fill:#002A5C;" d="M280.406,127.981c-0.129-0.86-0.803-1.56-1.58-1.95c-0.777-0.391-1.654-0.523-2.514-0.651
					c-0.214-0.032-0.439-0.062-0.639,0.02c-0.385,0.157-0.502,0.646-0.497,1.062c0.007,0.634,0.172,1.258,0.414,1.844
					c0.336,0.811,0.861,1.593,1.649,1.979c0.788,0.386,1.873,0.251,2.367-0.475c0.252-0.369,0.323-0.83,0.374-1.274
					c0.051-0.448,0.088-0.908-0.026-1.344c-0.114-0.436-0.407-0.85-0.833-0.995"/>
			</g>
		</g>
		<g>
			<path style="fill:#002A5C;" d="M298.767,139.023c0.193,0.209,0.285,0.49,0.422,0.739c0.138,0.249,0.362,0.489,0.646,0.497
				c0.088,0.003,0.18-0.017,0.261,0.016c0.164,0.067,0.179,0.312,0.074,0.455c-0.105,0.143-0.28,0.211-0.441,0.285
				c-0.512,0.234-0.976,0.589-1.525,0.711s-1.244-0.104-1.374-0.651c-0.103-0.434,0.185-0.856,0.456-1.21
				c0.086-0.112,0.171-0.223,0.257-0.335c0.184-0.24,0.396-0.498,0.693-0.552c0.298-0.054,0.65,0.251,0.514,0.522"/>
		</g>
	</g>
</g>
<g id="DESIGNED_BY_FREEPIK">
	<g>
		<g id="XMLID_1_">
			<g id="XMLID_20_">
				<path id="XMLID_28_" style="fill:#2B2E33;" d="M260.104,466.962c-0.432,0.443-0.803,0.931-1.108,1.453l-0.465-0.241
					c-0.067-0.298-0.349-0.503-0.659-0.466c-0.331,0.039-0.568,0.339-0.529,0.67c0.039,0.331,0.339,0.568,0.67,0.529
					c0.066-0.008,0.127-0.026,0.184-0.052l0.451,0.234c-0.251,0.554-0.433,1.139-0.539,1.744l0.747,0.132
					c0.23-1.306,0.85-2.507,1.792-3.473L260.104,466.962z"/>
				<path id="XMLID_27_" style="fill:#2B2E33;" d="M265.592,464.66c-0.171,0-0.341,0.006-0.51,0.017l-0.074-0.626
					c0.188-0.149,0.296-0.389,0.266-0.645c-0.046-0.393-0.402-0.674-0.795-0.628c-0.393,0.046-0.674,0.402-0.628,0.795
					c0.03,0.254,0.189,0.461,0.404,0.564l0.074,0.624c-0.714,0.116-1.403,0.332-2.06,0.646l0.327,0.684
					c0.934-0.447,1.942-0.673,2.995-0.673c0.496,0,0.993,0.053,1.475,0.158l0.161-0.741
					C266.692,464.719,266.142,464.66,265.592,464.66z"/>
				<path id="XMLID_26_" style="fill:#2B2E33;" d="M272.194,467.207c0.331-0.04,0.566-0.341,0.526-0.672
					c-0.04-0.331-0.341-0.566-0.672-0.526c-0.309,0.038-0.535,0.304-0.53,0.609l-0.416,0.363c-0.418-0.43-0.889-0.813-1.408-1.139
					l-0.404,0.641c1.134,0.715,2.021,1.726,2.563,2.925l0.69-0.313c-0.251-0.554-0.567-1.072-0.942-1.545l0.402-0.351
					C272.065,467.212,272.129,467.216,272.194,467.207z"/>
				<path id="XMLID_25_" style="fill:#2B2E33;" d="M265.044,474.869c-0.386,0.023-0.775,0.035-1.157,0.035
					c-0.88,0-1.733-0.061-2.478-0.179c-0.39-0.062-0.846-0.155-1.27-0.292c1.046,1.861,3.069,3.125,5.388,3.125
					c2.855,0,5.262-1.916,5.95-4.504c-0.682,0.449-1.505,0.825-2.459,1.123C267.839,474.544,266.463,474.783,265.044,474.869z"/>
				<path id="XMLID_21_" style="fill:#2B2E33;" d="M265.592,466.176c-3.352,0-6.08,2.666-6.08,5.944
					c0,0.425,0.046,0.849,0.137,1.261c0.673,0.483,2.706,0.89,5.348,0.731c2.879-0.173,5.297-0.957,6.672-2.158
					c-0.006-0.195-0.021-0.39-0.045-0.582C271.244,468.41,268.65,466.176,265.592,466.176z M263.432,472.691
					c-1.02,0-1.85-0.83-1.85-1.85c0-1.02,0.83-1.85,1.85-1.85c1.02,0,1.85,0.83,1.85,1.85
					C265.282,471.861,264.452,472.691,263.432,472.691z M268.17,471.783c-0.75,0-1.36-0.61-1.36-1.36s0.61-1.361,1.36-1.361
					c0.75,0,1.361,0.61,1.361,1.361S268.92,471.783,268.17,471.783z"/>
			</g>
			<path id="XMLID_18_" style="fill:#2B2E33;" d="M281.595,468.043c-0.295-0.116-0.805-0.309-1.382-0.237
				c-0.551,0.068-0.844,0.34-0.844,1.007v0.866h2.228v1.717h-2.228v5.455h-1.932v-5.455h-1.34v-1.717h1.34v-0.888
				c0-1.68,0.896-2.783,2.568-2.783c0.643,0,1.157,0.122,1.59,0.308L281.595,468.043z"/>
			<path id="XMLID_16_" style="fill:#2B2E33;" d="M286.298,471.375c-0.177-0.03-0.358-0.046-0.526-0.046
				c-0.896,0-1.51,0.548-1.51,1.613v3.908h-1.932v-7.172h1.873v0.785c0.451-0.673,1.14-0.977,2.021-0.977
				c0.414,0,0.848,0.128,1.094,0.337L286.298,471.375z"/>
			<path id="XMLID_13_" style="fill:#2B2E33;" d="M293.965,473.254c0,0.222-0.015,0.489-0.037,0.651h-5.085
				c0.207,1.036,0.933,1.488,1.843,1.488c0.622,0,1.295-0.252,1.813-0.688l1.133,1.243c-0.814,0.748-1.85,1.088-3.057,1.088
				c-2.198,0-3.723-1.495-3.723-3.753c0-2.258,1.48-3.797,3.627-3.797C292.544,469.486,293.958,471.018,293.965,473.254z
				 M288.851,472.587h3.175c-0.177-0.918-0.733-1.436-1.562-1.436C289.554,471.152,289.021,471.699,288.851,472.587z"/>
			<path id="XMLID_10_" style="fill:#2B2E33;" d="M301.618,473.254c0,0.222-0.015,0.489-0.037,0.651h-5.085
				c0.207,1.036,0.933,1.488,1.843,1.488c0.622,0,1.295-0.252,1.814-0.688l1.132,1.243c-0.814,0.748-1.85,1.088-3.057,1.088
				c-2.198,0-3.723-1.495-3.723-3.753c0-2.258,1.48-3.797,3.627-3.797C300.197,469.486,301.611,471.018,301.618,473.254z
				 M296.504,472.587h3.175c-0.178-0.918-0.733-1.436-1.562-1.436C297.207,471.152,296.674,471.699,296.504,472.587z"/>
			<path id="XMLID_7_" style="fill:#2B2E33;" d="M309.964,473.261c0,2.154-1.495,3.775-3.471,3.775
				c-0.962,0-1.643-0.378-2.109-0.933v3.708h-1.924v-10.133h1.887v0.792c0.466-0.585,1.155-0.984,2.139-0.984
				C308.469,469.486,309.964,471.107,309.964,473.261z M304.287,473.261c0,1.132,0.748,1.976,1.843,1.976
				c1.14,0,1.85-0.881,1.85-1.976c0-1.095-0.71-1.976-1.85-1.976C305.035,471.285,304.287,472.129,304.287,473.261z"/>
			<path id="XMLID_4_" style="fill:#2B2E33;" d="M313.068,467.332c0,0.696-0.54,1.229-1.236,1.229c-0.696,0-1.229-0.533-1.229-1.229
				c0-0.696,0.533-1.243,1.229-1.243C312.527,466.089,313.068,466.637,313.068,467.332z M312.809,476.851h-1.932v-7.172h1.932
				V476.851z"/>
			<path id="XMLID_2_" style="fill:#2B2E33;" d="M316.032,472.232l2.701-2.554h2.368l-3.479,3.375l3.501,3.797h-2.376l-2.716-2.901
				v2.901H314.1v-10.658h1.932V472.232z"/>
		</g>
		<g>
			<path style="fill:#2B2E33;" d="M184.412,476.786v-1.055c-0.527,0.718-1.391,1.23-2.387,1.23c-1.846,0-3.149-1.406-3.149-3.706
				c0-2.256,1.289-3.721,3.149-3.721c0.952,0,1.816,0.469,2.387,1.245v-3.765h1.099v9.77H184.412z M184.412,474.867v-3.208
				c-0.395-0.615-1.245-1.143-2.124-1.143c-1.421,0-2.27,1.172-2.27,2.739c0,1.567,0.85,2.724,2.27,2.724
				C183.168,475.98,184.017,475.482,184.412,474.867z"/>
			<path style="fill:#2B2E33;" d="M186.932,473.241c0-2.051,1.465-3.706,3.486-3.706c2.139,0,3.398,1.67,3.398,3.794v0.279h-5.727
				c0.088,1.333,1.025,2.446,2.549,2.446c0.805,0,1.626-0.322,2.182-0.893l0.527,0.718c-0.703,0.703-1.655,1.084-2.812,1.084
				C188.44,476.961,186.932,475.453,186.932,473.241z M190.403,470.443c-1.509,0-2.256,1.274-2.314,2.358h4.643
				C192.718,471.747,192.015,470.443,190.403,470.443z"/>
			<path style="fill:#2B2E33;" d="M194.607,475.848l0.571-0.791c0.469,0.542,1.362,1.011,2.329,1.011c1.084,0,1.67-0.513,1.67-1.216
				c0-1.714-4.38-0.659-4.38-3.281c0-1.098,0.952-2.036,2.636-2.036c1.201,0,2.051,0.454,2.622,1.026l-0.513,0.762
				c-0.424-0.513-1.201-0.894-2.109-0.894c-0.967,0-1.567,0.483-1.567,1.113c0,1.552,4.38,0.527,4.38,3.281
				c0,1.187-0.952,2.138-2.783,2.138C196.306,476.961,195.325,476.61,194.607,475.848z"/>
			<path style="fill:#2B2E33;" d="M201.477,467.968c0-0.41,0.337-0.747,0.732-0.747c0.41,0,0.747,0.337,0.747,0.747
				c0,0.41-0.337,0.732-0.747,0.732C201.814,468.7,201.477,468.378,201.477,467.968z M201.667,476.786v-7.075h1.099v7.075H201.667z"
				/>
			<path style="fill:#2B2E33;" d="M204.582,478.602l0.556-0.82c0.586,0.703,1.289,0.967,2.3,0.967c1.172,0,2.27-0.571,2.27-2.124
				v-1.011c-0.513,0.718-1.377,1.26-2.373,1.26c-1.845,0-3.149-1.377-3.149-3.662c0-2.27,1.289-3.677,3.149-3.677
				c0.952,0,1.802,0.469,2.373,1.245v-1.069h1.098v6.87c0,2.344-1.641,3.076-3.369,3.076
				C206.237,479.657,205.417,479.422,204.582,478.602z M209.709,474.75v-3.091c-0.381-0.615-1.23-1.143-2.109-1.143
				c-1.421,0-2.27,1.128-2.27,2.695c0,1.553,0.849,2.695,2.27,2.695C208.478,475.907,209.328,475.365,209.709,474.75z"/>
			<path style="fill:#2B2E33;" d="M217.413,476.786v-4.629c0-1.245-0.63-1.641-1.582-1.641c-0.865,0-1.685,0.527-2.095,1.099v5.17
				h-1.099v-7.075h1.099v1.025c0.498-0.586,1.464-1.201,2.519-1.201c1.48,0,2.256,0.747,2.256,2.285v4.966H217.413z"/>
			<path style="fill:#2B2E33;" d="M219.932,473.241c0-2.051,1.465-3.706,3.486-3.706c2.139,0,3.398,1.67,3.398,3.794v0.279h-5.727
				c0.088,1.333,1.025,2.446,2.549,2.446c0.806,0,1.626-0.322,2.183-0.893l0.527,0.718c-0.703,0.703-1.655,1.084-2.812,1.084
				C221.441,476.961,219.932,475.453,219.932,473.241z M223.404,470.443c-1.509,0-2.256,1.274-2.314,2.358h4.643
				C225.718,471.747,225.015,470.443,223.404,470.443z"/>
			<path style="fill:#2B2E33;" d="M233.35,476.786v-1.055c-0.527,0.718-1.392,1.23-2.388,1.23c-1.846,0-3.149-1.406-3.149-3.706
				c0-2.256,1.289-3.721,3.149-3.721c0.952,0,1.817,0.469,2.388,1.245v-3.765h1.098v9.77H233.35z M233.35,474.867v-3.208
				c-0.396-0.615-1.245-1.143-2.124-1.143c-1.421,0-2.27,1.172-2.27,2.739c0,1.567,0.849,2.724,2.27,2.724
				C232.105,475.98,232.954,475.482,233.35,474.867z"/>
			<path style="fill:#2B2E33;" d="M239.692,476.786v-9.77h1.098v3.765c0.572-0.776,1.421-1.245,2.388-1.245
				c1.845,0,3.149,1.465,3.149,3.721c0,2.299-1.304,3.706-3.149,3.706c-0.996,0-1.86-0.513-2.388-1.23v1.055H239.692z M242.9,475.98
				c1.436,0,2.285-1.157,2.285-2.724c0-1.568-0.85-2.739-2.285-2.739c-0.864,0-1.728,0.527-2.109,1.143v3.208
				C241.171,475.482,242.036,475.98,242.9,475.98z"/>
			<path style="fill:#2B2E33;" d="M247.528,478.558c0.161,0.073,0.425,0.117,0.601,0.117c0.483,0,0.805-0.161,1.055-0.747
				l0.469-1.069l-2.959-7.148h1.187l2.358,5.801l2.344-5.801h1.201l-3.545,8.51c-0.425,1.025-1.143,1.421-2.08,1.435
				c-0.234,0-0.601-0.044-0.805-0.103L247.528,478.558z"/>
		</g>
	</g>
</g>
</svg>
